<?xml version="1.0" encoding="UTF-8"?>
<svg width="339px" height="82px" viewBox="0 0 339 82" version="1.1" xmlns="http://www.w3.org/2000/svg" xmlns:xlink="http://www.w3.org/1999/xlink">
    <!-- Generator: Sketch 59.1 (86144) - https://sketch.com -->
    <title>Group</title>
    <desc>Created with Sketch.</desc>
    <g id="Page-1" stroke="none" stroke-width="1" fill="none" fill-rule="evenodd">
        <g id="Group" transform="translate(0.500000, 0.000000)" fill="#312F2E" fill-rule="nonzero">
            <path d="M1.45,58.1 L1.25,55.2 L1.21043151,53.8271932 C1.20432526,53.5095156 1.2,53.1470588 1.2,52.75 L1.02899668,41.1284903 C1.01141498,39.6596314 1,38.3431034 1,37.35 L1,23.4 L0.1,23.4 L0,23.7 L0.00280761719,40.3348755 C0.0302734375,45.6597656 0.25,56.634375 0.25,57.15 L0.4,59.1 L9.45,59.1 L9.55283203,59.0525391 C9.65390625,59.0085938 9.80625,58.95 9.9,58.95 C10.05,58.8 10.6,58.5 10.75,58.5 L11.25,58.1 L1.45,58.1 Z M9.6,44.1 C9.6,41.85 8.9,41.65 7.7,41.65 L7.7,42.7 C8,42.8 8.25,42.95 8.4,43.15 L8.49080933,43.3597394 C8.61851852,43.6444444 8.8,44.0333333 8.8,44.15 L8.88245926,45.4365926 C8.89288889,45.6262222 8.9,45.7933333 8.9,45.9 L8.9,51.95 C9.2,51.8 9.4,51.55 9.6,51.15 L9.6,44.1 Z M7.45,27.4 L7.45,28.7 C7.65,28.95 7.85,29.25 7.95,29.55 L7.96893004,30.3006173 C8.0063786,31.3679012 8.08729424,33.0871914 8.09866255,33.7632716 L8.1,35.75 C8.45,35.65 8.8,35.45 8.8,35.2 L8.7983965,30.7348397 C8.78877551,29.0765306 8.72142857,27.35 8.25,27.35 C8.15,27.35 8.05,27.4 8,27.4 L7.45,27.4 Z M2.4,57.1 L11.45,57.1 L11.552832,57.0525391 C11.6539063,57.0085938 11.80625,56.95 11.9,56.95 C12.05,56.8 12.6,56.5 12.75,56.5 C15.25,54.85 15.65,50.8 15.65,48.1 C15.65,46.45 15.65,44.75 15.25,43.1 C15.1,42.4 14.7,41.3 14.3,40.7 C14.3,40.55 13.6,40 13.3,39.7 C13,39.45 12.05,39.05 12.05,38.5 C12.05,38.05 12.45,38.05 12.75,37.8 L12.9368896,37.531405 C13.0619835,37.3578512 13.2181818,37.1545455 13.3,37.1 C13.3,36.95 13.6,36.65 13.6,36.65 C14.45,35 14.7,33.75 14.7,31.75 C14.7,29.55 14.55,27.3 14.15,25.05 L13.85,24.65 C13.85,24.5 13.45,23.8 13.3,23.65 L12.5307692,22.9026172 C12.3310651,22.7047337 12.1461538,22.5153846 12.05,22.4 C11.65,22.0444444 11.0524691,21.8864198 10.64369,21.7503429 L10.4994256,21.6986368 C10.4896605,21.6833333 10.3138889,21.5416667 7.15,21.4 L2.1,21.4 L2,21.7 L2.00280762,38.3348755 C2.03027344,43.6597656 2.25,54.634375 2.25,55.15 L2.4,57.1 Z M6.75,26.75 C6.75,26.05 7.7,26.2 8.1,26.2 C8.4,26.2 8.7,26.05 8.95,26.35 C9.4,26.6 9.8,27 9.95,27.55 L9.96893004,28.3006173 C10.0063786,29.3679012 10.0872942,31.0871914 10.0986626,31.7632716 L10.1,35 C10.1,35.15 9.95,35.4 9.95,35.4 C9.4,36.25 8.7,36.65 7.55,36.65 C7.25,36.65 6.75,36.5 6.75,36.1 L6.75,26.75 Z M7.15,52.75 L7,52.6 L7,41.15 C7,41 7,40.55 7.25,40.45 L8.20908203,40.4513672 C8.88515625,40.4609375 10.00625,40.5375 10.4,41.15 L10.4908093,41.3597394 C10.6185185,41.6444444 10.8,42.0333333 10.8,42.15 L10.8824593,43.4365926 C10.8928889,43.6262222 10.9,43.7933333 10.9,43.9 L10.9,51.2 C10.4,52.45 9.55,52.9 8.1,52.9 L7.8648834,52.9098765 C7.62098765,52.9271605 7.46111111,52.9444444 7.15,52.75 Z M20.15,56.5 C20.2,56.85 20.35,57 20.7,57 L31.5,57 L31.5,52.95 C31.5,52.8 31.25,52.4 31.1,52.4 L25.2,52.4 C25.05,52.4 24.8,52.15 24.8,52 L24.8,27.25 L24.81893,26.6384774 C24.8563786,25.7263374 24.9372942,24.1708848 24.9486626,23.6108282 L24.95,22.3 L24.5,21.9 L20.45,21.75 C20.2,21.75 19.9,21.9 19.9,22.15 L19.9018308,46.3800634 C19.9189272,49.3843336 20.05,55.5163043 20.05,55.75 L20.15,56.5 Z M19.05,55.75 L19.05,54.6 L18.9299827,48.5521657 C18.9120983,47.4483932 18.9,46.4608696 18.9,45.8 L18.9,23.8 L18.45,23.75 C18.2,23.75 17.9,23.9 17.9,24.15 L17.9018308,48.3800634 C17.9189272,51.3843336 18.05,57.5163043 18.05,57.75 L18.15,58.5 C18.2,58.85 18.35,59 18.7,59 L29.5,59 L29.5,58 L20.7,58 C19.75,58 19.3,57.6 19.15,56.65 L19.05,55.75 Z M48.65,52.15 L48.75,51.75 C48.75,51.6 48.9,51.2 48.9,51.05 L48.9059616,50.6129312 C48.93384,49.25224 49.05,45.954 49.05,45.25 L49.05,34.95 C48.9,34.05 48.9,33.6 48.9,32.65 C48.9,32.1 49.2,31.55 49.2,31 C49.2,28.5 49.05,26.35 49.05,23.9 L48.9,23.6 C48.75,23.5 48.2,22.8 48.1,22.65 C47.65,22.1 47.95,21.7 47.15,21.7 L46.9492188,21.7039062 C46.76875,21.715625 46.6375,21.7625 46.45,21.95 L44.8,21.95 L44.55,22.1 L44.4,22.25 L44.15,52.15 L44.1055556,52.2592593 C44.05,52.3888889 43.95,52.6 43.85,52.7 C43.3,53.35 42.5,53.5 41.65,53.5 C41.1916667,53.5 40.8375,53.1180556 40.5585648,52.7592593 L40.393853,52.5386424 C40.3633218,52.4794118 40.2205882,52.1705882 40,51.2 L40,21.85 L39.6,21.7 L38.35,21.85 C38.2,22.1 38.05,22.25 37.8,22.25 C37.55,22.25 37.4,22.1 37.25,21.85 L35.35,21.85 L35.2,21.95 L35.1146664,25.204582 C35.1058264,25.6541617 35.1,26.0603448 35.1,26.35 L35.1,36.75 C35.1,36.9 35.2,37.3 35.2,37.45 C35.2,37.55 35.1,38.25 35.1,38.4 L35.1,39.1 C35.1,39.65 35.2,40.2 35.2,40.75 L35.2,40.9 C35.2,41 35.1,42.8 35.1,42.95 L35.1,48.4 L35.1138484,48.8440233 C35.1663265,49.9897959 35.35,52.5 35.35,53.1 C36.4,57.2 38.9,57.6 42.35,57.6 C45.95,57.6 47.7,55.55 48.65,52.8 L48.65,52.15 Z M33.35,23.85 L33.2,23.95 L33.1146664,27.204582 C33.1058264,27.6541617 33.1,28.0603448 33.1,28.35 L33.1,38.75 C33.1,38.9 33.2,39.3 33.2,39.45 C33.2,39.55 33.1,40.25 33.1,40.4 L33.1,41.1 C33.1,41.65 33.2,42.2 33.2,42.75 L33.2,42.9 C33.2,43 33.1,44.8 33.1,44.95 L33.1,50.4 C33.1,58.95 35.75,59.6 40.35,59.6 C42,59.6 43.3,59.15 44.25,58.4 C43.7,58.55 43.05,58.6 42.35,58.6 L41.5765315,58.5921703 C37.1423667,58.4934989 34.1,57.3391892 34.1,48.4 L34.1,42.95 L34.1135184,42.5522303 C34.1408284,41.9689349 34.2,41.0192308 34.2,40.75 C34.2,40.4 34.1,39.85 34.1,39.1 L34.1,38.4 L34.1432006,38.0741172 C34.1702479,37.8566116 34.2,37.5863636 34.2,37.45 L34.141701,37.1447874 C34.1197531,37.0117284 34.1,36.8611111 34.1,36.75 L34.1018519,25.712963 C34.1055556,25.2055556 34.1166667,24.55 34.15,23.85 L33.35,23.85 Z M42.55,24.1 L42.4,23.85 L42.15,52.5 C42.55,52.45 42.9,52.3 43.1,52.05 L43.15,52 C43.2,51.95 43.2,51.95 43.2,51.9 L43.15,51.9 C43.2,42.75 43.35,33.15 43.4,23.95 L42.8,23.95 L42.55,24.1 Z M53.95,21.75 L53.7,21.9 L53.7006904,55.2742911 C53.7079395,55.9412098 53.7913043,57.15 54.75,57.15 L55.0087409,57.1411893 C56.0344045,57.0804348 58.2217391,56.7152174 58.45,56.35 C59.3,56.35 58.8,57.2 60.95,57 L61.275,56.9125 C61.375,56.8875 61.45,56.875 61.45,56.9 C61.45,56.8 61.85,57.05 62.1,57.15 C62.8,57.15 63.4,57.25 64,57.25 C65.05,57.25 64.8,54.3 64.8,53.95 L64.8,53.05 L64.5,52.95 L63.1126093,52.9381924 C61.3002551,52.9117347 59.2321429,52.85 58.8,52.85 C58.3,52.7 58.3,51.9 58.3,51.65 L58.3,41.05 C58.3,40.65 58.8,40.55 59.05,40.55 C60.2,40.55 61.4,40.65 62.6,40.65 C62.75,40.55 62.85,40.4 62.85,40.25 L62.85,36.85 C62.85,36.5 62.5,36.5 62.2,36.5 L58.7,36.5 C58.1,36.5 58.15,31.8 58.15,30.15 L58.143161,29.8479646 C58.1126298,29.0048443 58.0088235,27.5411765 58.45,26.35 L64.1,26.35 C64.25,26.25 64.3,26 64.4,25.95 L64.4,22.3 L64.1,22.05 C62.15,21.8 57.1,21.75 53.95,21.75 Z M51.95,23.75 L51.7,23.9 L51.7006904,57.2742911 C51.7079395,57.9412098 51.7913043,59.15 52.75,59.15 L53.0087409,59.1411893 C54.0344045,59.0804348 56.2217391,58.7152174 56.45,58.35 C57.3,58.35 56.8,59.2 58.95,59 L59.275,58.9125 C59.375,58.8875 59.45,58.875 59.45,58.9 C59.45,58.8 59.85,59.05 60.1,59.15 C60.8,59.15 61.4,59.25 62,59.25 C62.45,59.25 62.65,58.7 62.75,58.05 C61.95,57.8 58.55,58.2 58.45,57.4 C57.35,57.85 55.45,58.15 54.75,58.15 C52.7,58.15 52.7,56 52.7,55.1 L52.7,23.75 L51.95,23.75 Z M62.1,28.35 C62.25,28.25 62.3,28 62.4,27.95 L62.4,27.35 L59.2,27.35 L59.13125,27.85 C59.1125,28.0125 59.1,28.175 59.1,28.35 L62.1,28.35 Z M60.6,42.65 C60.75,42.55 60.85,42.4 60.85,42.25 L60.85,41.65 C60.8,41.65 60.75,41.6 60.7,41.6 C60.2,41.6 59.75,41.55 59.3,41.55 L59.3,42.65 L60.6,42.65 Z M78.3,55.7 L78.45,55.7 C79.05,55.7 79.35,56.8 79.6,56.8 L81.5,56.8 C81.8076923,56.8 81.8786982,56.4745562 81.8950842,56.2105599 L81.9297376,53.2311953 C81.9734694,50.1153061 82.05,45.6 82.05,44.35 L82.05,39.8 L81.75,39.5 L81.6,39.5 C81.365625,39.5 79.5931641,39.6318359 79.1253296,39.6483154 L75.15,39.65 C75,39.65 74.75,39.8 74.75,40.1 L74.75,42.95 L75,43.25 L76.45,43.25 L76.6,43.4 C76.75,43.7 76.9,44.25 76.9,44.5 L76.9,50.7 C76.9,51.8 75.9,52.55 74.75,52.55 C74.2,52.55 73.15,52.1 73.15,51.4 L73.15,27.95 L73.1974609,27.847168 C73.2414062,27.7460938 73.3,27.59375 73.3,27.5 C73.75,26.55 74.6,26.4 75.6,26.4 C76.05,26.4 76.6,26.55 76.9,26.95 C77,27.2 77.45,27.8 77.45,27.8 L77.45,34.1 L77.75,34.4 L81.5,34.4 L81.5,26.95 C81.5,26.8107143 81.2413265,25.8091837 81.0842748,25.3465561 L81.05,25.25 C80,22.1 77.6,21.7 74.6,21.7 C73.75,21.7 73,21.8 72.15,22.2 C68.45,24.25 68.15,27.8 68.15,31.7 L68.15,49.8 C68.15,51 68.45,51.8 68.75,52.85 C69.6,55.7 71.3,56.8 74.2,56.8 C75.75,56.8 76.6,56.65 77.9,56 L78.3,55.7 Z M78.4,57 C78.35,57 78.35,56.95 78.3,56.9 C76.85,57.6 75.9,57.8 74.2,57.8 C71,57.8 68.9283747,56.3895317 67.8939422,53.4318224 L67.65,52.7 L67.4860768,52.0834019 C67.3012346,51.3771605 67.15,50.6944444 67.15,49.8 L67.15,31.7 C67.15,30.45 67.15,29.15 67.35,28 C66.65,29.8 66.5,31.9 66.5,34 L66.2,51.9 C66.15,53.05 66.45,53.9 66.75,54.9 C67.4765625,57.6609375 69.0946777,59.1080078 71.831633,59.1957535 L72.1,59.2 C73.7,59.25 74.5,58.9 75.85,58.2 L76.25,57.9 L76.4,57.95 C76.95,57.95 77.25,59.05 77.55,59.05 L79.4,59.1 C79.8,59.1 79.8,58.55 79.8,58.25 L79.8,57.8 L79.6,57.8 C78.4,57.8 78.7,57.4 78.4,57 Z M75.45,29.1 L75.5527047,29.2610068 C75.7322314,29.5318182 76,29.9 76,29.9 L75.9,36.6 L76.2,36.9 L79.75,36.95 L79.75,35.4 L77.35,35.4 L76.45,34.5 L76.55,28.1 L76.4028,27.9608 C76.278,27.836 76.11,27.65 76.05,27.5 C75.97,27.42 75.858,27.404 75.714,27.4008 L75.1789062,27.3984375 C74.7875,27.403125 74.4875,27.45 74.3,27.75 L74.2305664,27.9960938 C74.1890625,28.1328125 74.15,28.25 74.15,28.25 L74.15,28.45 C74.6,28.5 75.15,28.7 75.45,29.1 Z M74.15,43.85 L74.15,45.45 L74.6,45.45 L74.75,45.6 C74.9,45.9 75.05,46.45 75.05,46.75 L74.9,51.55 C75.45,51.5 75.9,51.15 75.9,50.7 L75.9,44.55 C75.9,44.5 75.8,44.4 75.8,44.25 L74.4,44.25 L74.15,43.85 Z M91.8,42.05 C91.8,41.95 91.65,41.3 91.65,41.15 C91.65,40.8 91.8,40.65 92.2,40.65 L92.4280075,40.6567978 C93.2967773,40.7055176 95.35,41.0609375 95.35,43.1 L95.3638484,43.7145773 C95.4145773,45.2787172 95.5879009,48.87793 95.5993994,51.9808793 L95.6,53.3573054 C95.6088757,54.5798817 95.6769231,55.9230769 96.1,57 L100.4,57 L100.544461,57.0069971 C100.860204,57.0306122 101.307143,57.0857143 101.35,56.7 C101.35,56.1 101.05,55.55 100.95,55 C100.596154,53.4961538 100.555325,50.6619822 100.550614,47.5012489 L100.55,46.25 C100.55,46.15 100.3,42.7 100.3,42.6 C100.0625,40.985 99.238375,40.227375 98.513525,39.8127 L98.4,39.75 C97.75,39.35 97.45,39.75 97.45,38.95 C97.45,38.65 98.75,37.85 99.15,37.35 C100.398,35.862 100.54008,32.25432 100.54945,30.3755616 L100.55,30.15 C100.55,27.3 100.3,24.05 97.7,22.3 C96.8538462,21.75 92.75,21.6295858 89.2657487,21.6356168 L87.45,21.65 C86.75,21.65 86.5,21.8 86.6,22.7 L86.6982103,53.5694989 C86.6993701,54.5646259 86.7,55.5436508 86.7,56.5 C86.75,56.8 87.1,56.9 87.4,56.9 C87.6,56.9 87.75,56.85 87.9,56.85 L88.0685935,56.8557399 C88.6738754,56.883218 90.5294118,57 90.75,57 C90.7,56.95 91.8,57.1 91.8,56.85 L91.8,42.05 Z M91.95,37 L91.9293111,35.4147981 C91.8917444,33.2795259 91.8149778,29.869437 91.8019111,28.5630815 L91.8,28.25 C91.8,27.95 91.6,26.1 92.3,26.1 C93.8,26.1 95.1,26.5 95.45,27.95 L95.4403277,29.8867746 C95.4152367,32.2788462 95.35,33.4903846 95.35,35.55 C94.95,36.85 93.8,37.25 92.6,37.25 L92.4085048,37.2472565 C92.1962963,37.2376543 92.0277778,37.1944444 91.95,37 Z M84.6,24.7 L84.6982103,55.5694989 C84.6993701,56.5646259 84.7,57.5436508 84.7,58.5 C84.75,58.8 85.1,58.9 85.4,58.9 C85.6,58.9 85.75,58.85 85.9,58.85 L86.0685935,58.8557399 C86.6738754,58.883218 88.5294118,59 88.75,59 C88.7,58.95 89.8,59.1 89.8,58.85 L89.8,58 C89.6,58 89.4,57.95 89.2,57.95 L87.9858796,57.8539352 C87.9458333,57.8513889 87.9166667,57.85 87.9,57.85 L87.7,57.85 C87.6,57.85 87.5,57.9 87.4,57.9 C86.7,57.9 85.85,57.6 85.7,56.65 L85.6981481,49.2555556 C85.6944444,44.1666667 85.6833333,38.9 85.65,34.3 L85.6415674,30.9860442 C85.6273157,28.0205104 85.6,25.5347826 85.6,23.65 L85.45,23.65 C84.75,23.65 84.5,23.8 84.6,24.7 Z M93.35,45.1 L93.3638484,45.7145773 C93.4145773,47.2787172 93.5879009,50.87793 93.5993994,53.9808793 L93.6,55.3573054 C93.6088757,56.5798817 93.6769231,57.9230769 94.1,59 L98.4,59 L98.5444606,59.0069971 C98.8602041,59.0306122 99.3071429,59.0857143 99.35,58.7 C99.35,58.45 99.3,58.2 99.25,58 L95.4,58 C94.7,56.1625 94.6125,54.5929687 94.6015625,53.2244141 L94.6,52.3 C94.6,49.85 94.45,47.05 94.4,45.15 L94.3814869,44.7976676 C94.35,44.0795918 94.35,43.3142857 94.35,43.1 C94.35,42.1 93.45,41.8 92.75,41.7 C92.8,41.85 92.8,42 92.8,42.05 L92.8,43.6 C93.1,43.95 93.35,44.45 93.35,45.1 Z M93.45,29.95 L93.4412847,31.4663787 C93.4169421,33.5371901 93.35,34.7681818 93.35,36.2 C93.8,36.05 94.15,35.8 94.35,35.35 L94.3578125,34.575 C94.371875,33.84375 94.4,33.225 94.4,32.55 L94.4231812,31.8644531 C94.45,30.8513672 94.45,29.70625 94.45,28 C94.15,27.35 93.3,27.1 92.4,27.1 C92.65,27.2 92.75,27.7 92.8,27.95 L92.8,28.8 C93.1,29.1 93.3,29.45 93.45,29.95 Z M114.95,21.9 L109.4,21.9 C109,21.9 108.75,22.8 108.75,23.45 C107.65,33.2 106.2,42.1 105.15,51.9 C104.95,53.45 104.6,55.05 104.6,56.6 C104.8,56.95 105.15,56.85 105.4,56.85 C106.25,56.85 107.1,56.85 107.9,56.7 C109.5,56.7 108.5,52.05 109.55,50.65 L109.760816,50.6569902 C110.423346,50.6865784 112.28913,50.8 113.55,50.8 C114.4,50.8 114.4,53.9 114.5,55.05 C114.5,56.15 114.95,57 114.95,57 L116.131333,56.9924148 C117.556444,56.9715556 119.6,56.8933333 119.6,56.6 C119.7,56.55 119.45,56.25 119.45,55.75 C119.2,54.1 119.05,52.6 118.9,50.95 L118.863537,50.7742691 C118.676278,49.7181926 118.193103,45.262069 118.1,44.75 C117.05,36.9 116.35,30.05 115.2,22.2 L114.95,21.9 Z M114.65,30.55 C114.4,30.55 114.4,30.45 114.4,30.15 C114.4,30 114.5,29.9 114.8,29.9 L114.931481,29.9037037 C115.005556,29.9111111 115.05,29.9333333 115.05,30 C115.05,30.3 114.95,30.55 114.65,30.55 Z M110.1,46.5 C110.05,46.5 109.7,46.25 109.85,46.1 C109.85,45.3 109.95,44.6 110.1,43.8 L110.5832,39.5856 C110.828,37.476 111.08,35.37 111.35,33.3 L111.6,33 C112.55,33.45 112.65,39.2 112.85,41.45 C112.85,42.8 113.4,44.6 113.4,46.25 C113.4,46.4 113.25,46.8 113,46.8 L110.1,46.5 Z M106.75,25.45 C105.65,35.2 104.2,44.1 103.15,53.9 C102.95,55.45 102.6,57.05 102.6,58.6 C102.8,58.95 103.15,58.85 103.4,58.85 C104.25,58.85 105.1,58.85 105.9,58.7 C106.3,58.7 106.55,58.35 106.7,57.85 L105.25,57.85 C104.75,57.85 104.2,58.1 103.6,56.85 C103.6,55.3178571 103.772449,54.432398 103.917183,53.4329993 L104.15,51.8 C104.7,46.9 105.45,41.4 106.05,36.7 L106.772886,31.2842566 C107.095918,28.8632653 107.414286,26.4142857 107.7,23.9 L107.4,23.9 C107,23.9 106.75,24.8 106.75,25.45 Z M111.55,52.8 C112.4,52.8 112.4,55.9 112.5,57.05 C112.5,58.15 112.95,59 112.95,59 L114.131333,58.9924148 C115.556444,58.9715556 117.6,58.8933333 117.6,58.6 C117.7,58.55 117.45,58.3 117.45,57.85 C116.15,58 114.85,58 114.35,58 L114.246955,57.7921632 C114.03318,57.3426071 113.556937,56.238662 113.504681,55.2273527 L113.5,55.05 C113.5,54.85 113.45,54.65 113.45,54.35 L113.40162,53.8416667 C113.326389,52.9527778 113.291667,51.925 113.5,51.8 C112.5,51.8 111.05,51.75 110.25,51.7 L110.15,51.7 C110.05,52 110,52.35 110,52.8 L111.55,52.8 Z M111.35,43.45 C111.35,44.1 111.5,44.9 111.6,45.7 L112.3,45.75 C112.25,45.1 112.15,44.4 112.05,43.75 L112.05,43.8 C111.9,43 111.8,42.25 111.8,41.45 L111.7,39.7 L111.6,38.7 L111.25,42.05 C111.25,42.6 111.3,43.05 111.35,43.45 Z M131.15,56.95 C133.9,56.6 135.5,54.5 136.25,51.75 C136.25,51.6 136.4,51.25 136.4,51.25 L136.4,46 L136.011007,44.9136889 C135.947778,44.7435556 135.89,44.5933333 135.85,44.5 C134.55,40.7 131.4,37.25 128.85,34.55 C127.5675,33.0775 127.1875,31.7855 127.152706,30.0309687 L127.144888,28.9396439 C127.143652,27.5102539 127.278125,26.3 129.05,26.3 C130.1,26.3 130.3,26.75 130.55,27.8 C130.65,29.3 130.65,30.9 130.65,32.4 L130.667969,32.4625 C130.703125,32.575 130.7875,32.8 130.9,32.8 L134.8,32.8 C134.8,32.8 134.904167,32.6958333 134.938889,32.5743056 L134.95,32.5 C134.95,32.4 135.05,32.1 135.05,32 L135.051157,29.3275463 C135.043056,27.4375 134.925,25.125 133.8,23.75 L133.166773,23.0949249 C132.989941,22.9162722 132.815385,22.7461538 132.7,22.65 C132.6,22.5 132,22.15 131.85,22.15 C130.9,21.75 129.95,21.75 128.85,21.75 C127.85,21.75 127,21.9 126.05,22.25 C124.45,23 123.25,24.65 122.75,26.4 C122.75,26.5 122.65,27.15 122.65,27.25 C122.4,28.5 122.4,29.65 122.4,30.9 C122.4,36.05 126.7,40.45 129.85,43.85 C131.18,45.275 131.6075,47.015875 131.646925,49.0297563 L131.65,49.35 C131.65,50.6 131.55,52.35 130.1,52.75 L129.85,52.75 C129.2,52.75 128.25,52.6 127.85,52.1 L127.25,51.25 L127.241285,51.0351991 C127.216942,50.6115702 127.15,49.8045455 127.15,49.6 L127.15,44.6 L127,44.5 L122.65,44.5 L122.55,44.6 L122.55,48.35 L122.583,49.0236459 C122.61213,49.5215976 122.65,50.1346154 122.65,50.35 L122.724529,51.0481337 C122.968522,53.2198231 123.382258,55.3467742 125.55,56.25 C126.3,56.5 127.15,56.95 127.85,56.95 L131.15,56.95 Z M121.772199,26.2355682 L121.767764,26.2454946 C121.284929,26.9324464 120.945674,27.6662232 120.75,28.4 C120.75,28.5 120.65,29.15 120.65,29.25 C120.4,30.5 120.4,31.65 120.4,32.9 C120.4,36.95 123.05,40.5 125.7,43.5 L127,43.5 L128.15,43.6 L128.15,46.2 C129.3,47.65 129.65,49.4 129.65,51.35 L129.65,51.75 L130,51.75 C130.55,51.35 130.65,50.2 130.65,49.35 C130.65,47.45 130.3,45.85 129.1,44.55 L127.953849,43.3161415 C124.8961,40.0023502 121.4,35.8636364 121.4,30.9 L121.403906,29.91875 C121.415625,28.934375 121.4625,27.95 121.65,27.05 L121.6532,26.966 C121.658,26.912 121.67,26.84 121.7,26.75 C121.7,26.55 121.75,26.4 121.75,26.35 C121.75,26.3245707 121.75,26.2991414 121.756578,26.2737121 L121.767764,26.2454946 L121.772199,26.2355682 Z M127.85,57.95 C127.05,57.95 126.45,57.65 125.85,57.45 C125.6,57.35 125.4,57.2 125.2,57.2 C122.2,55.95 121.9,53.15 121.65,50.45 L121.647363,50.1168945 C121.642969,49.8820312 121.63125,49.58125 121.6,49.3 C121.6,48.9 121.55,48.45 121.55,48.35 L121.6,46.5 L120.65,46.5 L120.55,46.6 L120.55,50.35 C120.55,50.6 120.65,52 120.65,52.35 L120.724529,53.0481337 C120.968522,55.2198231 121.382258,57.3467742 123.55,58.25 C124.3,58.5 125.15,58.95 125.85,58.95 L129.15,58.95 C130.15,58.8 131.05,58.45 131.75,57.85 L131.3,57.95 L127.85,57.95 Z M128.55,29.8 C128.6,30.7 128.65,31.6 128.65,32.5 C128.85,33 129.15,33.45 129.6,33.9 L129.6,33.85 L130.45,34.8 L132.8,34.8 C132.8,34.8 132.904167,34.6958333 132.938889,34.5743056 L132.95,34.5 C132.95,34.4 133.05,34.1 133.05,34 L133.05,33.8 L130.9,33.8 C130,33.8 129.65,32.45 129.65,32.45 C129.65,30.95 129.65,29.4 129.55,27.9 L129.481713,27.6819444 C129.376389,27.3694444 129.3,27.3 129.05,27.3 C128.3,27.3 128.15,27.95 128.15,28.75 C128.3,29 128.4,29.35 128.55,29.8 Z M148.75,56.95 C151.5,56.6 153.1,54.5 153.85,51.75 C153.85,51.6 154,51.25 154,51.25 L154,46 L153.611007,44.9136889 C153.547778,44.7435556 153.49,44.5933333 153.45,44.5 C152.15,40.7 149,37.25 146.45,34.55 C145.1675,33.0775 144.7875,31.7855 144.752706,30.0309687 L144.744888,28.9396439 C144.743652,27.5102539 144.878125,26.3 146.65,26.3 C147.7,26.3 147.9,26.75 148.15,27.8 C148.25,29.3 148.25,30.9 148.25,32.4 L148.267969,32.4625 C148.303125,32.575 148.3875,32.8 148.5,32.8 L152.4,32.8 L152.438889,32.7555556 C152.483333,32.7 152.55,32.6 152.55,32.5 C152.55,32.4 152.65,32.1 152.65,32 L152.651157,29.3275463 C152.643056,27.4375 152.525,25.125 151.4,23.75 L150.766773,23.0949249 C150.589941,22.9162722 150.415385,22.7461538 150.3,22.65 C150.2,22.5 149.6,22.15 149.45,22.15 C148.5,21.75 147.55,21.75 146.45,21.75 C145.45,21.75 144.6,21.9 143.65,22.25 C142.05,23 140.85,24.65 140.35,26.4 C140.35,26.5 140.25,27.15 140.25,27.25 C140,28.5 140,29.65 140,30.9 C140,36.05 144.3,40.45 147.45,43.85 C148.85,45.35 149.25,47.2 149.25,49.35 L149.24744,49.6586528 C149.22536,50.87136 149.034,52.382 147.7,52.75 L147.45,52.75 C146.8,52.75 145.85,52.6 145.45,52.1 L144.85,51.25 L144.841285,51.0351991 C144.816942,50.6115702 144.75,49.8045455 144.75,49.6 L144.75,44.6 L144.6,44.5 L140.25,44.5 L140.15,44.6 L140.15,48.35 C140.15,48.6 140.25,50 140.25,50.35 L140.324529,51.0481337 C140.568522,53.2198231 140.982258,55.3467742 143.15,56.25 C143.9,56.5 144.75,56.95 145.45,56.95 L148.75,56.95 Z M139.372199,26.2355682 L139.367764,26.2454946 C138.884929,26.9324464 138.545674,27.6662232 138.35,28.4 C138.35,28.5 138.25,29.15 138.25,29.25 C138,30.5 138,31.65 138,32.9 C138,36.95 140.65,40.5 143.3,43.5 L144.6,43.5 L145.75,43.6 L145.75,46.2 C146.9,47.65 147.25,49.4 147.25,51.35 L147.25,51.75 L147.6,51.75 C148.15,51.35 148.25,50.2 148.25,49.35 C148.25,47.45 147.9,45.85 146.7,44.55 L145.553849,43.3161415 C142.4961,40.0023502 139,35.8636364 139,30.9 C139,29.6 139,28.25 139.25,27.05 L139.2532,26.966 C139.258,26.912 139.27,26.84 139.3,26.75 C139.3,26.55 139.35,26.4 139.35,26.35 C139.35,26.3245707 139.35,26.2991414 139.356578,26.2737121 L139.367764,26.2454946 L139.372199,26.2355682 Z M145.45,57.95 C144.65,57.95 144.05,57.65 143.45,57.45 C143.2,57.35 143,57.2 142.8,57.2 C139.8,55.95 139.5,53.15 139.25,50.45 L139.247363,50.1168945 C139.242969,49.8820312 139.23125,49.58125 139.2,49.3 C139.2,48.9 139.15,48.45 139.15,48.35 L139.2,46.5 L138.25,46.5 L138.15,46.6 L138.15,50.35 C138.15,50.6 138.25,52 138.25,52.35 L138.324529,53.0481337 C138.568522,55.2198231 138.982258,57.3467742 141.15,58.25 C141.9,58.5 142.75,58.95 143.45,58.95 L146.75,58.95 C147.75,58.8 148.65,58.45 149.35,57.85 L148.9,57.95 L145.45,57.95 Z M146.15,29.8 C146.2,30.7 146.25,31.6 146.25,32.5 C146.45,33 146.75,33.45 147.2,33.9 L147.2,33.85 L148.05,34.8 L150.4,34.8 L150.438889,34.7555556 C150.483333,34.7 150.55,34.6 150.55,34.5 C150.55,34.4 150.65,34.1 150.65,34 L150.65,33.8 L148.5,33.8 C147.6,33.8 147.25,32.45 147.25,32.45 C147.25,30.95 147.25,29.4 147.15,27.9 L147.081713,27.6819444 C146.976389,27.3694444 146.9,27.3 146.65,27.3 C145.9,27.3 145.75,27.95 145.75,28.75 C145.9,29 146,29.35 146.15,29.8 Z M174.65,57.2 L175.05,56.85 L175.059936,56.1229152 C175.10112,54.086304 175.2579,49.19508 175.293,44.2491 L175.295516,41.4997806 C175.270571,38.1425089 175.15,27.6327586 175.15,27.05 C175.3,26.8 175.3,26.55 175.55,26.55 C176.7,26.55 177.7,26.7 179.2,26.7 C179.75,25.55 179.55,24.2 179.6,22.4 L179.45,22.25 L179.119831,22.2134771 C176.901446,22 171.378205,22 166.35,22 C166.2,22.15 166.1,22.25 166.1,22.4 L166.1,25.8 C166.1,25.9 166.35,26.4 166.6,26.4 L170.5,26.4 C170.718182,26.7636364 170.75124,26.8628099 170.753043,27.1014275 L170.75,27.45 C170.75,37.15 170.4,47 170.4,56.7 C170.4,56.85 170.65,57.2 170.75,57.2 L174.65,57.2 Z M170.75,58.2 C170.35,58.2 169.4,57.15 169.4,56.7 C169.4,51.85 169.45,47 169.55,42.1 C169.63,38.18 169.71,34.26 169.7388,30.3656 L169.75,27.4 L165.5,27.4 L165.1,25.8 L165.1,24 L164.35,24 C164.2,24.15 164.1,24.25 164.1,24.4 L164.1,27.8 C164.1,27.9 164.35,28.4 164.6,28.4 L168.5,28.4 C168.718182,28.7636364 168.75124,28.8628099 168.753043,29.1014275 L168.75,29.45 C168.75,39.15 168.4,49 168.4,58.7 C168.4,58.85 168.65,59.2 168.75,59.2 L172.65,59.2 L173.05,58.85 L173.05,58.2 L170.75,58.2 Z M177.2,28.7 C177.35,28.4 177.45,28.05 177.5,27.65 C177.35,27.65 177.2,27.65 177.05,27.6 C176.7,27.6 176.4,27.55 176.15,27.55 L176.15,28.7 L177.2,28.7 Z M188.85,56.85 L188.85,42.05 L188.83107,41.9133745 C188.790741,41.6858025 188.7,41.2666667 188.7,41.15 C188.7,40.8 188.85,40.65 189.25,40.65 L189.478008,40.6567978 C190.346777,40.7055176 192.4,41.0609375 192.4,43.1 L192.413848,43.7145773 C192.464577,45.2787172 192.637901,48.87793 192.649399,51.9808793 L192.648817,52.994538 C192.648817,54.3085799 192.684615,55.8153846 193.15,57 L197.45,57 L197.594461,57.0069971 C197.910204,57.0306122 198.357143,57.0857143 198.4,56.7 C198.4,56.1857143 198.179592,55.7081633 198.053644,55.2358601 L198,55 C197.6,53.3 197.6,49.9 197.6,46.25 L197.35,42.6 L197.35,42.6 C197.1125,40.985 196.288375,40.227375 195.563525,39.8127 L195.45,39.75 C194.8,39.35 194.5,39.75 194.5,38.95 C194.5,38.65 195.8,37.85 196.2,37.35 C197.5,35.8 197.6,31.95 197.6,30.15 L197.596558,29.6114014 C197.55957,26.8996094 197.1875,23.940625 194.75,22.3 C193.903846,21.75 189.8,21.6295858 186.315749,21.6356168 L184.5,21.65 C183.8,21.65 183.55,21.8 183.65,22.7 L183.74821,53.5694989 C183.74937,54.5646259 183.75,55.5436508 183.75,56.5 C183.8,56.8 184.15,56.9 184.45,56.9 C184.65,56.9 184.8,56.85 184.95,56.85 L185.118594,56.8557399 C185.723875,56.883218 187.579412,57 187.8,57 C187.75,56.95 188.85,57.1 188.85,56.85 Z M189,37 L188.979311,35.4147981 C188.938167,33.0761667 188.85,29.2083333 188.85,28.25 L188.830834,27.8180002 C188.805782,27.1739229 188.816667,26.1 189.35,26.1 C190.85,26.1 192.15,26.5 192.5,27.95 L192.490328,29.8867746 C192.465237,32.2788462 192.4,33.4903846 192.4,35.55 C192,36.85 190.85,37.25 189.65,37.25 L189.458505,37.2472565 C189.246296,37.2376543 189.077778,37.1944444 189,37 Z M181.65,24.7 L181.74821,55.5694989 C181.74937,56.5646259 181.75,57.5436508 181.75,58.5 C181.8,58.8 182.15,58.9 182.45,58.9 C182.65,58.9 182.8,58.85 182.95,58.85 L183.118594,58.8557399 C183.723875,58.883218 185.579412,59 185.8,59 C185.75,58.95 186.85,59.1 186.85,58.85 L186.85,58 C186.65,58 186.45,57.95 186.25,57.95 L185.03588,57.8539352 C184.995833,57.8513889 184.966667,57.85 184.95,57.85 L184.75,57.85 C184.65,57.85 184.55,57.9 184.45,57.9 C183.75,57.9 182.9,57.6 182.75,56.65 L182.742415,44.6503556 C182.735778,41.0666667 182.723333,37.52 182.7,34.3 L182.691567,30.9860442 C182.677316,28.0205104 182.65,25.5347826 182.65,23.65 L182.5,23.65 C181.8,23.65 181.55,23.8 181.65,24.7 Z M190.4,45.1 L190.413848,45.7145773 C190.464577,47.2787172 190.637901,50.87793 190.649399,53.9808793 L190.648817,54.994538 C190.648817,56.3085799 190.684615,57.8153846 191.15,59 L195.45,59 L195.594461,59.0069971 C195.910204,59.0306122 196.357143,59.0857143 196.4,58.7 C196.4,58.45 196.35,58.2 196.3,58 L192.45,58 C191.75,56.1625 191.6625,54.5929687 191.651563,53.2244141 L191.65,52.3 C191.65,49.85 191.5,47.05 191.45,45.15 L191.431487,44.7976676 C191.4,44.0795918 191.4,43.3142857 191.4,43.1 C191.4,42.1 190.5,41.8 189.8,41.7 C189.85,41.85 189.85,42 189.85,42.05 L189.85,43.6 C190.15,43.95 190.4,44.45 190.4,45.1 Z M190.5,29.95 L190.491285,31.4663787 C190.466942,33.5371901 190.4,34.7681818 190.4,36.2 C190.85,36.05 191.2,35.8 191.4,35.35 C191.4,34.25 191.45,33.45 191.45,32.55 L191.473181,31.8644531 C191.5,30.8513672 191.5,29.70625 191.5,28 C191.2,27.35 190.35,27.1 189.45,27.1 C189.7,27.2 189.8,27.7 189.85,27.95 L189.85,28.8 C190.15,29.1 190.35,29.45 190.5,29.95 Z M212,21.9 L206.45,21.9 C206.05,21.9 205.8,22.8 205.8,23.45 C204.7,33.2 203.25,42.1 202.2,51.9 C202,53.45 201.65,55.05 201.65,56.6 C201.85,56.95 202.2,56.85 202.45,56.85 C203.3,56.85 204.15,56.85 204.95,56.7 C206.55,56.7 205.55,52.05 206.6,50.65 L206.810816,50.6569902 C207.473346,50.6865784 209.33913,50.8 210.6,50.8 C211.45,50.8 211.45,53.9 211.55,55.05 C211.55,56.15 212,57 212,57 L213.181333,56.9924148 C214.606444,56.9715556 216.65,56.8933333 216.65,56.6 C216.75,56.55 216.5,56.25 216.5,55.75 C216.25,54.1 216.1,52.6 215.95,50.95 C215.8,50.4 215.25,45.3 215.15,44.75 C214.1,36.9 213.4,30.05 212.25,22.2 L212,21.9 Z M211.7,30.55 C211.45,30.55 211.45,30.45 211.45,30.15 C211.45,30 211.55,29.9 211.85,29.9 L211.981481,29.9037037 C212.055556,29.9111111 212.1,29.9333333 212.1,30 C212.1,30.3 212,30.55 211.7,30.55 Z M207.15,46.5 C207.1,46.5 206.75,46.25 206.9,46.1 C206.9,45.3 207,44.6 207.15,43.8 L207.6332,39.5856 C207.878,37.476 208.13,35.37 208.4,33.3 L208.65,33 C209.6,33.45 209.7,39.2 209.9,41.45 C209.9,42.8 210.45,44.6 210.45,46.25 C210.45,46.4 210.3,46.8 210.05,46.8 L207.15,46.5 Z M203.8,25.45 C202.7,35.2 201.25,44.1 200.2,53.9 C200,55.45 199.65,57.05 199.65,58.6 C199.85,58.95 200.2,58.85 200.45,58.85 C201.3,58.85 202.15,58.85 202.95,58.7 C203.35,58.7 203.6,58.35 203.75,57.85 L202.3,57.85 C201.8,57.85 201.25,58.1 200.65,56.85 C200.65,55.3178571 200.822449,54.432398 200.967183,53.4329993 L201.2,51.8 C201.75,46.9 202.5,41.4 203.1,36.7 L203.822886,31.2842566 C204.145918,28.8632653 204.464286,26.4142857 204.75,23.9 L204.45,23.9 C204.05,23.9 203.8,24.8 203.8,25.45 Z M208.6,52.8 C209.45,52.8 209.45,55.9 209.55,57.05 C209.55,58.15 210,59 210,59 L211.181333,58.9924148 C212.606444,58.9715556 214.65,58.8933333 214.65,58.6 C214.75,58.55 214.5,58.3 214.5,57.85 C213.2,58 211.9,58 211.4,58 L211.296955,57.7921632 C211.070605,57.3161626 210.55,56.1065217 210.55,55.05 C210.55,54.85 210.5,54.65 210.5,54.35 L210.45162,53.8416667 C210.376389,52.9527778 210.341667,51.925 210.55,51.8 C209.55,51.8 208.1,51.75 207.3,51.7 L207.2,51.7 C207.1,52 207.05,52.35 207.05,52.8 L208.6,52.8 Z M208.4,43.45 C208.4,44.1 208.55,44.9 208.65,45.7 L209.35,45.75 C209.3,45.1 209.2,44.4 209.1,43.75 L209.1,43.8 C208.95,43 208.85,42.25 208.85,41.45 L208.75,39.7 L208.65,38.7 L208.3,42.05 C208.3,42.6 208.35,43.05 208.4,43.45 Z M221,57.1 L222.564844,57.0976563 C223.190625,57.090625 223.725,57.0625 224.4,56.95 L225.2,57.1 L225.35,56.95 L226.103704,56.9240741 C226.660741,56.9003704 227.369481,56.8671852 227.76723,56.8548593 L228,56.85 C228.65,56.85 229.55,56.7 230.1,56.45 C233.017647,54.9441176 233.366436,52.7738754 233.397374,50.8563505 L233.45,29 L233.45,29 C233.45,26.9 233,24.8 231.55,23.2 L231.197085,22.8274052 C231.067638,22.6966472 230.925073,22.5698251 230.765452,22.4784257 L230.6,22.4 C229.85,22 228.8,21.9 228,21.9 L221,21.9 C220.85,21.9 220.6,22 220.45,22.15 L220.45,33.15 C220.45,33.55 220.6,35.75 220.6,36.15 L220.6,54.3 C220.6,54.4 220.7,55.35 220.7,55.65 L220.688889,56.137037 C220.688889,56.5 220.733333,56.9 221,57.1 Z M225.05,52.35 L225.2,26.55 L225.2,26.55 C225.339286,26.0392857 225.780357,26.1321429 226.082853,26.1480138 L226.15,26.15 C227.35,26.15 228.65,26.65 228.8,27.95 L228.845229,28.8426371 C228.875657,29.5411721 228.889181,30.1420361 228.895192,30.7626221 L228.888086,41.4654917 C228.875787,45.9343411 228.850794,50.4666667 228.8,51 C228.5,52.45 227.5,53 226,53 C225.6,53 225.05,52.85 225.05,52.35 Z M223.95,51.6 C223.7,51.6 223.7,51.45 223.7,51.2 C223.7,51.05 223.8,50.9 224.1,50.9 C224.25,50.9 224.35,50.9 224.35,51.05 C224.35,51.3 224.25,51.6 223.95,51.6 Z M220.4,57.9 C219.55,57.3 219.7,56.45 219.7,55.85 L219.696064,55.3823615 C219.690816,55.2336735 219.678571,55.05 219.65,54.85 C219.65,54.65 219.6,54.35 219.6,54.3 L219.6,36.15 L219.5944,35.99 L219.5944,35.99 L219.5,34.75 C219.45,34.1 219.45,33.35 219.45,33.15 L219.45,23.9 L219,23.9 C218.85,23.9 218.6,24 218.45,24.15 L218.45,35.15 C218.45,35.55 218.6,37.75 218.6,38.15 C218.65,45.15 218.35,52.1 219,58.6 C219,58.95 219.15,59.1 219.5,59.1 L220.564844,59.0976563 C221.190625,59.090625 221.725,59.0625 222.4,58.95 L223.2,59.1 L223.35,58.95 L224.103704,58.9240741 C224.660741,58.9003704 225.369481,58.8671852 225.76723,58.8548593 L226,58.85 C226.65,58.85 227.55,58.7 228.1,58.45 C228.55,58.2 228.9,57.95 229.25,57.7 C228.8,57.8 228.35,57.85 228,57.85 L227.707407,57.8518519 C227.455556,57.8555556 227.1,57.8666667 226.7,57.9 C226.15,57.9 225.9,57.95 225.75,57.95 L225.5,58.2 L224.35,58 C223.594444,58.1333333 223.03642,58.108642 222.21941,58.1015089 L221,58.1 L220.4,57.9 Z M226.8,29.95 L226.845229,30.8426371 C226.875657,31.5411721 226.889181,32.1420361 226.895192,32.7626221 L226.881235,47.0772318 C226.873985,49.0829616 226.863934,50.8409836 226.85,51.9 C227.3,51.75 227.65,51.4 227.8,50.8 L227.8,50.9 L227.809369,50.751346 C227.863747,49.5833792 227.885499,43.5582945 227.8942,38.7056175 L227.899399,31.5286627 C227.896694,30.3615702 227.881818,29.4318182 227.8,28 C227.7,27.45 227,27.2 226.2,27.15 L226.2,28.8 C226.5,29.1 226.75,29.45 226.8,29.95 Z M238.35,57.05 L238.6,57.3 L242.6,57.3 L242.9,57.05 L242.976071,51.7535828 C242.989876,50.5618802 243,49.4113636 243,48.6 C243,44.15 243.3,39.7 243.3,35.3 L243.3,22.75 C243.15,22.5 243,22.25 242.75,22.25 L238.75,22.1 C238.6,22.1 238.35,22.5 238.35,22.65 C238.35,31.8 238.2,40.5 238.2,49.65 L238.2,55.55 L238.35,57.05 Z M237.4,57.5 L237.2,55.65 L237.2,49.65 C237.2,45.1 237.2,40.6 237.25,36.15 L237.3068,31.386 C237.332,28.992 237.35,26.58 237.35,24.15 L236.75,24.1 C236.6,24.1 236.35,24.5 236.35,24.65 C236.35,33.8 236.2,42.5 236.2,51.65 L236.2,57.55 L236.35,59.05 L236.6,59.3 L240.6,59.3 L240.9,59.05 L240.9,58.3 L238.2,58.3 L237.4,57.5 Z M247.95,56.25 L248.1,56.65 L248.25,56.8 L251.65,56.8 C252.05,56.8 252.6,56.25 252.6,55.8 C252.6,50.9 252.6,45.85 252.75,40.9 L252.85,40.75 L253,40.75 C253.4,40.75 254.65,46.65 254.95,47.2 L255.05,47.5 C255.9,50.25 256.55,53.05 257.25,55.95 C257.25,56.1 257.4,56.5 257.55,56.65 C257.65,56.8 257.95,57.05 257.95,57.05 L263.7,57.05 L263.95,56.8 L264.32871,33.7583092 C264.335996,33.38696 264.343103,33.0333333 264.35,32.7 C264.35,29.7 264.5,26.85 264.5,23.85 L264.5,22.6 L264.397257,22.4297668 C264.270988,22.2314815 264.111111,22.05 263.8,22.05 L260,22.05 L259.75,22.35 L259.75,34.9 C259.75,35.45 259.6,40.35 259.6,40.9 L259.6,44.6 C259.6,44.75 259.45,44.75 259.3,44.75 C259.05,44.75 258.9,44.45 258.9,44.2 C258.9,44.0714286 258.789796,43.6489796 258.758309,43.4364431 L258.75,43.35 C258.75,43.1 258.5,42 258.35,41.75 C257.25,37.95 256.15,33.95 255.2,30.1 L253.95,24.95 L253.882798,24.7191008 C253.676749,23.9793951 253.130435,21.9 253,21.9 C251.5,21.9 250.45,21.8 248.95,21.8 C248.532143,21.8 248.416071,22.4897959 248.401622,22.828535 L248.4,22.9 C248.25,33.25 248.25,43.8 247.95,54.15 L247.95,56.25 Z M246.95,54.15 C247.15,47.25 247.25,40.3 247.3,33.35 C247.3,30.2 247.35,27 247.4,23.8 L246.95,23.8 C246.532143,23.8 246.416071,24.4897959 246.401622,24.828535 L246.4,24.9 C246.25,35.25 246.25,45.8 245.95,56.15 L245.95,58.25 L246.1,58.65 L246.25,58.8 L249.65,58.8 C250.05,58.8 250.6,58.25 250.6,57.8 L247.85,57.8 L247.25,57.2 L246.95,56.5 L246.95,54.15 Z M255.25,57.95 C255.25,58.0785714 255.360204,58.3908163 255.486152,58.5718659 L255.55,58.65 C255.65,58.8 255.95,59.05 255.95,59.05 L261.7,59.05 L261.95,58.8 L261.95,58 L257.6,57.95 L257.138325,57.5920346 C256.94142,57.4343195 256.746154,57.2692308 256.7,57.2 C256.45,56.85 256.3,56.35 256.25,56 L256.148926,55.7046875 C256.078125,55.49375 256,55.24375 256,55.15 L256.05,55.25 C255.45,52.7 254.8,50.1 254.05,47.65 C253.95,47.55 253.8,46.95 253.6,46.25 C253.55,47.95 253.55,49.6 253.55,51.25 C254.15,53.45 254.7,55.7 255.25,57.95 Z M257.75,24.35 L257.75,36.1 C258,37.1 258.3,38.1 258.6,39.1 C258.6,38.7 258.6,38.3 258.65,37.85 L258.748005,35.0458579 C258.749308,34.9844291 258.75,34.9352941 258.75,34.9 L258.75,24.05 L258,24.05 L257.75,24.35 Z M279.3,55.7 L279.45,55.7 C280.05,55.7 280.35,56.8 280.6,56.8 L282.5,56.8 C282.9,56.8 282.9,56.25 282.9,56 L282.919928,53.9497516 C282.960735,50.8586531 283.05,45.7 283.05,44.35 L283.05,39.8 L282.75,39.5 L282.6,39.5 C282.365625,39.5 280.593164,39.6318359 280.12533,39.6483154 L276.15,39.65 C276,39.65 275.75,39.8 275.75,40.1 L275.75,42.95 L276,43.25 L277.45,43.25 L277.6,43.4 C277.75,43.7 277.9,44.25 277.9,44.5 L277.9,50.7 C277.9,51.8 276.9,52.55 275.75,52.55 C275.2,52.55 274.15,52.1 274.15,51.4 L274.15,27.95 L274.225,27.78125 C274.2625,27.6875 274.3,27.575 274.3,27.5 C274.75,26.55 275.6,26.4 276.6,26.4 C277.05,26.4 277.6,26.55 277.9,26.95 C278,27.2 278.45,27.8 278.45,27.8 L278.45,34.1 L278.75,34.4 L282.5,34.4 L282.5,26.95 C282.5,26.8107143 282.241327,25.8091837 282.084275,25.3465561 L282.05,25.25 C281,22.1 278.6,21.7 275.6,21.7 C274.75,21.7 274,21.8 273.15,22.2 C269.538095,24.2011905 269.166213,27.6318027 269.150552,31.4220393 L269.15,49.8 C269.15,51 269.45,51.8 269.75,52.85 C270.6,55.7 272.3,56.8 275.2,56.8 C276.75,56.8 277.6,56.65 278.9,56 L279.3,55.7 Z M279.4,57 C279.35,57 279.35,56.95 279.3,56.9 C277.85,57.6 276.9,57.8 275.2,57.8 C272,57.8 269.928375,56.3895317 268.893942,53.4318224 L268.65,52.7 L268.486077,52.0834019 C268.301235,51.3771605 268.15,50.6944444 268.15,49.8 L268.15,31.7 C268.15,30.45 268.15,29.15 268.35,28 C267.65,29.8 267.5,31.9 267.5,34 L267.2,51.9 C267.15,53.05 267.45,53.9 267.75,54.9 C268.476562,57.6609375 270.094678,59.1080078 272.831633,59.1957535 L273.1,59.2 C274.7,59.25 275.5,58.9 276.85,58.2 L277.25,57.9 L277.4,57.95 C277.95,57.95 278.25,59.05 278.55,59.05 L280.4,59.1 C280.8,59.1 280.8,58.55 280.8,58.25 L280.8,57.8 L280.6,57.8 C279.4,57.8 279.7,57.4 279.4,57 Z M276.45,29.1 L276.552705,29.2610068 C276.732231,29.5318182 277,29.9 277,29.9 L276.9,36.6 L277.2,36.9 L280.75,36.95 L280.75,35.4 L278.35,35.4 L277.45,34.5 L277.55,28.1 L277.4028,27.9608 C277.278,27.836 277.11,27.65 277.05,27.5 C276.97,27.42 276.858,27.404 276.714,27.4008 L276.178906,27.3984375 C275.7875,27.403125 275.4875,27.45 275.3,27.75 L275.20625,28.075 C275.175,28.175 275.15,28.25 275.15,28.25 L275.15,28.45 C275.6,28.5 276.15,28.7 276.45,29.1 Z M275.15,43.85 L275.15,45.45 L275.6,45.45 L275.75,45.6 C275.9,45.9 276.05,46.45 276.05,46.75 L275.9,51.55 C276.45,51.5 276.9,51.15 276.9,50.7 L276.9,44.55 C276.9,44.5 276.8,44.4 276.8,44.25 L275.4,44.25 L275.15,43.85 Z M299.65,56.3 L300.05,56.55 C301.25,57.1 302.35,57.25 303.55,57.25 L304.033752,57.2443237 C306.432617,57.1855469 308.515625,56.640625 309.5,54.25 C310.2,52.65 310.6,51.4 310.6,49.65 L310.6,44.65 L310.35,44.5 L309.38623,44.4369021 C309.038581,44.416955 308.676471,44.4 308.45,44.4 L306.55,44.4 L306.4,44.5 L306.4,51.3 L306.120689,51.7650463 C306.018403,51.9392361 305.9125,52.125 305.85,52.25 C305.45,52.75 304.65,53.15 304,53.15 C302.5,53.15 301.95,52.1 301.8,50.75 L301.7,30.75 L301.7,30.75 L301.69985,28.734598 C301.721488,27.3227273 301.940909,25.85 303.7,25.85 C305.35,25.85 305.45,27.35 305.45,28.55 L305.45,33.25 L305.95,33.75 L308.25,33.75 C308.65,33.75 309.6,33.9 309.6,33.2 C309.6,32.95 309.45,32.7 309.45,32.25 C309.45,32 309.45,31.85 309.7,31.6 C309.65,29.6 309.8,26.8 309.3,25.35 C309.2,25.05 308.45,23.85 308.3,23.7 C308.15,23.45 307.1,22.5 306.8,22.2 C305.85,21.55 304.8,21.4 303.7,21.4 C301.4,21.4 300.85,21.8 299.25,23.15 L299.1,23.3 C297.75,25.2 297.1,27.5 297.1,29.8 L297.1,50.2 C297.1,50.2 297.2,51 297.2,51.3 C297.5,53.45 298.05,54.8 299.65,56.3 Z M298.95,57.05 C297.15,55.4 296.55,53.9 296.2,51.45 L296.193628,51.2610605 C296.171598,50.8727811 296.1,50.3 296.1,50.3 L296.1,29.8 C296.1,28.5 296.3,27.15 296.7,25.9 C295.6,27.7 295.1,29.75 295.1,31.8 L295.1,52.2 C295.1,52.2 295.2,53 295.2,53.3 C295.5,55.45 296.05,56.8 297.65,58.3 L298.05,58.55 C299.25,59.1 300.35,59.25 301.55,59.25 C303.4,59.25 305.1,59 306.3,57.95 C305.45,58.15 304.5,58.25 303.55,58.25 C302.2,58.25 300.95,58.05 299.6,57.45 L299.2,57.2 L298.95,57.05 Z M303.45,30.55 L303.45,35.25 C303.45,35.6 303.6,35.75 303.95,35.75 L306.25,35.75 C306.65,35.75 307.6,35.9 307.6,35.2 C307.6,35.1 307.55,34.95 307.5,34.75 L305.95,34.75 C304.9,34.75 304.45,34.3 304.45,33.25 L304.45,28.55 C304.45,27.8 304.4,26.85 303.7,26.85 C303.05,26.85 302.8,27.45 302.75,28.15 C303.4,28.65 303.45,29.7 303.45,30.55 Z M304.4,46.5 L304.4,52.1 C304.6,52 304.8,51.95 304.95,51.8 L305.043989,51.6207363 C305.199174,51.3347107 305.4,51 305.4,51 L305.4,46.4 L304.55,46.4 L304.4,46.5 Z M317.65,56.65 C318.05,56.9 318.55,56.8 318.95,57.05 C319.1,57.05 319.5,57.45 319.65,57.45 L322.3,57.45 C322.65,57.45 323.6,57.2 324,56.9 C326.25,55.45 327.7,52.65 327.95,50.05 C328.1,49.4 328.25,47.25 328.25,47.1 L328.260971,46.0481745 C328.286938,44.0791955 328.35,40.1191176 328.35,38.65 L328.35,29.5 L328.258491,28.9529519 C327.834949,26.5372449 327.035714,23.5857143 324.9,22.1 C324.25,21.6 323.05,21.6 322.4,21.45 C322.15,21.45 321.1,21.35 320.95,21.35 L320.45,21.45 C320.2,21.45 319.5,21.6 319.1,21.7 C317.35,22.4 316.2,24.1 315.65,25.85 L315.55,26.35 C315.55,26.4875 315.003819,27.38125 314.912789,27.6447917 L314.764978,28.258237 C314.695289,28.5660296 314.621244,28.9311704 314.603822,29.160563 L314.6,29.25 C314.6,29.385 314.519,30.0465 314.5028,30.3597 L314.5,30.45 C314.5,30.85 314.35,32.05 314.35,32.05 L314.35,48.05 C314.35,48.15 314.5,49.1 314.5,49.4 L314.622554,50.3423823 C314.855125,52.0443213 315.205263,53.8526316 316.3,55.2 L316.80625,55.71875 C317.075,56 317.375,56.325 317.5,56.5 L317.65,56.65 Z M319.25,50.05 L319.251684,34.0953801 C319.264793,32.6411243 319.35,28.5192308 319.35,27.55 C319.5,26.65 320.45,26.1 321.35,26.1 L321.519531,26.1023437 C321.7375,26.109375 322.075,26.1375 322.3,26.25 L323.05,27 L323.2,27.3 C323.2,27.4 323.45,28.2 323.45,28.35 L323.418001,32.7446688 C323.380622,36.6907289 323.321722,41.9998011 323.304732,44.6545867 L323.2972,46.01875 C323.2828,46.77275 323.2172,48.79075 323.2028,49.64075 L323.197249,50.1802843 C323.171429,51.3997449 322.939286,52.65 321.5,52.65 L320.95,52.65 L320.377583,52.3586937 C320.197337,52.2713018 320.015385,52.1884615 319.9,52.15 C319.65,52 319.35,51.6 319.35,51.35 L319.3284,51.0503 C319.299,50.7185 319.25,50.225 319.25,50.05 Z M316.7,57.1 C316.45,56.75 315.3,55.6 315.3,55.6 C314.05,54.05 313.8,51.65 313.5,49.55 C313.5,49.35 313.45,48.95 313.4,48.6 L313.45,48.7 C313.375,48.4 313.35625,48.2125 313.351562,48.1164062 L313.35,31.95 C313.35,31.95 313.480667,30.9046667 313.498089,30.5213778 L313.502637,30.178418 C313.507031,29.9835937 313.51875,29.7375 313.55,29.55 C313.55,29.5 313.6,29.25 313.6,29.25 C313.6,29.025 313.694922,28.5152344 313.777979,28.1122559 L313.9,27.55 C313.95,27.25 314.1,26.95 314.3,26.6 C314.4,26.4 314.55,26.35 314.55,26.35 L314.65,25.8 C314.2,26.45 313.85,27.15 313.65,27.85 L313.55,28.35 C313.55,28.4875 313.003819,29.38125 312.912789,29.6447917 L312.764978,30.258237 C312.695289,30.5660296 312.621244,30.9311704 312.603822,31.160563 L312.6,31.25 C312.6,31.385 312.519,32.0465 312.5028,32.3597 L312.5,32.45 C312.5,32.85 312.35,34.05 312.35,34.05 L312.35,50.05 C312.35,50.15 312.5,51.1 312.5,51.4 L312.622554,52.3423823 C312.855125,54.0443213 313.205263,55.8526316 314.3,57.2 L314.80625,57.71875 C315.075,58 315.375,58.325 315.5,58.5 L315.65,58.65 C316.05,58.9 316.55,58.8 316.95,59.05 C317.1,59.05 317.5,59.45 317.65,59.45 L320.3,59.45 C320.65,59.45 321.6,59.2 322,58.9 C322.2,58.75 322.45,58.6 322.65,58.4 C322.5375,58.4375 322.453125,58.446875 322.375781,58.4492188 L319.65,58.45 C319.05,58.45 318.85,58.25 318.75,58.1 L318.696,58.0676 C318.684,58.058 318.68,58.05 318.7,58.05 L318.05,57.8 L318.1,57.85 L317.81335,57.8077 C317.603,57.7685 317.4,57.695 317.05,57.45 L316.7,57.1 Z M321.05,29 L321.2,29.3 C321.2,29.4 321.45,30.2 321.45,30.35 L321.418001,34.7446688 C321.380622,38.6907289 321.321722,43.9998011 321.304732,46.6545867 L321.3,47.8 C321.3,48.25 321.2,50.75 321.2,51.65 L321.5,51.65 C322.041667,51.65 322.166667,51.025 322.193287,50.3247685 L322.209329,48.7635569 C322.216327,48.3826531 322.228571,47.9571429 322.25,47.55 C322.25,47 322.3,46 322.3,45.8 L322.314815,40.7111111 C322.320741,39.7955556 322.329037,38.8231111 322.340652,37.8392889 L322.435185,30.537037 C322.444444,29.6222222 322.45,28.8833333 322.45,28.45 C322.4,28.45 322.35,28.15 322.3,27.95 L322.35,28 C322.3,27.9 322.25,27.8 322.25,27.7 C322.2,27.65 322.15,27.55 322.15,27.5 L321.8,27.15 C321.65,27.1 321.45,27.1 321.35,27.1 C321,27.1 320.5,27.35 320.35,27.6 L320.35,28.3 L321.05,29 Z M332.95,56.75 L333.3,57.05 L337.75,57.05 L338.15,56.75 L338.179499,53.0388188 C338.185172,52.6159729 338.191935,52.1677419 338.2,51.7 L337.7,51.4 L332.95,51.4 L332.8,51.95 L332.8,54.95 L332.95,56.75 Z M331.8,55.05 L332,57.2 L332.9,58.05 L336.15,58.05 L336.15,58.75 L335.75,59.05 L331.3,59.05 L330.95,58.75 L330.8,56.95 L330.8,53.95 L330.95,53.4 L331.8,53.4 L331.8,55.05 Z" id="BLUEGRASSTRADINGCO."></path>
            <path d="M167.261166,9.09942108 C167.468156,9.22706281 167.540602,9.38661258 167.478505,9.57807517 C167.425279,9.74218597 167.303621,9.80470378 167.113528,9.76562961 L167.012779,9.73762653 C165.27406,9.22705962 163.576764,8.83350352 161.920842,8.55694644 C160.264919,8.28038936 158.526226,8.24847941 156.704711,8.46121562 C156.08374,8.54631011 155.473127,8.64203997 154.872855,8.74840808 C154.272583,8.85477619 153.68267,8.97177935 153.103097,9.09942108 C152.978902,9.14196832 152.771915,9.18451493 152.482129,9.22706217 C152.192342,9.26960941 151.90256,9.29088272 151.612773,9.29088272 C151.322987,9.29088272 151.043554,9.26960941 150.774467,9.22706217 C150.505379,9.18451493 150.32944,9.07814841 150.246644,8.90795944 C149.998256,8.61012874 149.915461,8.2484826 149.998257,7.82301017 C149.998257,7.44008498 149.811968,7.29117186 149.439386,7.37626635 C148.645923,7.55354653 147.881218,7.81946325 147.145255,8.17402243 L146.707127,8.39739508 C145.837767,8.86541475 144.927023,9.2483342 143.974868,9.5461649 C143.06411,9.88654284 142.25686,10.035456 141.553093,9.99290872 C140.890723,9.95036147 140.238714,9.7269918 139.597044,9.32279299 C138.955373,8.91859418 138.593146,8.33357836 138.51035,7.56772799 C138.468952,7.09970831 138.551746,6.66360561 138.758737,6.2594068 C138.965727,5.85520799 139.234811,5.49356185 139.565995,5.17445753 C139.89718,4.85535321 140.269757,4.56816362 140.683737,4.31288017 C141.097718,4.05759671 141.490994,3.86613699 141.863577,3.73849526 C142.691538,3.44066455 143.529836,3.25984148 144.378497,3.19602062 C145.227157,3.13219975 146.065456,3.0790165 146.893417,3.03646926 C148.342349,2.95137477 149.80161,3.01519468 151.271241,3.22793089 C152.740873,3.44066711 154.200133,3.75976664 155.649065,4.18523907 C157.26359,4.65325875 158.87809,5.18509131 160.492615,5.78075271 C161.838053,6.27713721 163.140351,6.84738115 164.399537,7.49149669 L165.149875,7.88683071 C165.481059,8.05701969 165.832938,8.24847941 166.20552,8.46121562 C166.578103,8.67395184 166.929981,8.88668486 167.261166,9.09942108 Z M163.758427,5.50424905 C163.174157,5.22927133 162.769664,4.81681093 162.544944,4.26685547 C162.5,4.07044281 162.488764,3.88385359 162.511236,3.70708219 C162.52809,3.57450364 162.576545,3.45849866 162.656601,3.35906537 L162.747191,3.26515591 C162.837079,3.14730832 162.983145,3.06874443 163.185393,3.0294619 C163.387641,2.99017937 163.601122,2.99017937 163.825843,3.0294619 C164.425096,3.09929751 164.900055,3.33983891 165.250728,3.7510923 L167.398876,6.44702511 C167.533708,6.60415524 167.533708,6.75146252 167.398876,6.88895139 C167.286516,7.00352544 167.142946,7.02944089 166.968165,6.96669793 L163.758427,5.50424905 Z M197.134861,3.73849526 C197.921377,4.03632596 198.697532,4.51497526 199.463349,5.17445753 C200.229167,5.8339398 200.570675,6.63168864 200.487884,7.56772799 C200.405093,8.33357836 200.042887,8.91859418 199.401256,9.32279299 C198.759625,9.7269918 198.107655,9.95036147 197.445327,9.99290872 C196.741602,10.035456 195.934401,9.88654284 195.023699,9.5461649 C194.262021,9.30790034 193.526845,9.01517898 192.818156,8.66799495 L192.291607,8.39739508 C191.4223,7.9293754 190.511612,7.58900257 189.559514,7.37626635 C189.186954,7.29117186 189.000677,7.44008498 189.000677,7.82301017 C189.083468,8.20593536 189.021376,8.5675815 188.814398,8.90795944 C188.690211,9.07814841 188.503934,9.18451493 188.255561,9.22706217 C188.007187,9.26960941 187.727772,9.29088272 187.417305,9.29088272 C187.106838,9.29088272 186.817074,9.26960941 186.548003,9.22706217 L186.183206,9.16324162 C186.074544,9.14196816 185.978817,9.1206947 185.896026,9.09942108 C185.316489,8.97177935 184.726611,8.85477619 184.126375,8.74840808 C183.52614,8.64203997 182.915565,8.54631011 182.294632,8.46121562 C180.473227,8.24847941 178.73464,8.28038936 177.078819,8.55694644 C175.698967,8.78741068 174.290386,9.09912422 172.853047,9.49209392 L171.987192,9.73762653 C171.738818,9.82272102 171.583587,9.76953776 171.521494,9.57807517 C171.459401,9.38661258 171.531842,9.22706281 171.73882,9.09942108 C172.069984,8.88668486 172.421841,8.67395184 172.794401,8.46121562 C173.166961,8.24847941 173.518818,8.05701969 173.849982,7.88683071 C175.381617,7.0784331 176.954624,6.37641412 178.569051,5.78075271 C180.183477,5.18509131 181.777182,4.65325875 183.350213,4.18523907 C184.799057,3.75976664 186.258228,3.44066711 187.72777,3.22793089 C189.197312,3.01519468 190.656483,2.95137477 192.105327,3.03646926 C192.974634,3.0790165 193.833579,3.13219975 194.682187,3.19602062 C195.530796,3.25984148 196.348346,3.44066455 197.134861,3.73849526 Z M174.218593,5.50424912 L171.136516,6.91841314 C170.913176,7.03626073 170.734507,7.02644025 170.600503,6.88895139 C170.466499,6.75146253 170.466499,6.60415526 170.600503,6.44702513 L172.610553,3.9133146 C172.967897,3.4026417 173.481571,3.10802714 174.151591,3.02946208 C174.642939,2.95089702 175.022611,3.0294609 175.290619,3.26515609 C175.513959,3.5401338 175.558627,3.8740303 175.424623,4.2668556 C175.201283,4.81681103 174.799277,5.22927141 174.218593,5.50424912 Z M171.111765,0.817518248 C171.32353,1.16788321 171.447059,1.54744321 171.482353,1.95620438 C171.517647,2.36496555 171.5,2.78345285 171.429412,3.21167883 L170.476471,7.53284672 C170.405882,7.8442838 170.255883,8 170.026471,8 C169.797058,8 169.647059,7.8442838 169.576471,7.53284672 L168.570588,3.21167883 C168.5,2.78345285 168.482353,2.36496555 168.517647,1.95620438 C168.552941,1.54744321 168.67647,1.16788321 168.888235,0.817518248 C169.205884,0.272503358 169.576469,0 170,0 C170.423531,0 170.794116,0.272503358 171.111765,0.817518248 Z" id="B"></path>
            <path d="M147.640625,76.7832031 L144.509766,76.7832031 L144.509766,79.421875 L148.214844,79.421875 L148.214844,81.0898438 L142.5,81.0898438 L142.5,71.1367188 L148.201172,71.1367188 L148.201172,72.8115234 L144.509766,72.8115234 L144.509766,75.1630859 L147.640625,75.1630859 L147.640625,76.7832031 Z M153.574219,78.4785156 C153.574219,78.0729146 153.470541,77.7664398 153.263184,77.559082 C153.055826,77.3517242 152.678714,77.1363943 152.131836,76.9130859 C151.133784,76.5348288 150.416018,76.0916367 149.978516,75.5834961 C149.541013,75.0753555 149.322266,74.4749384 149.322266,73.7822266 C149.322266,72.9436807 149.619626,72.2703476 150.214355,71.762207 C150.809085,71.2540665 151.564449,71 152.480469,71 C153.091149,71 153.63574,71.1287422 154.114258,71.3862305 C154.592776,71.6437187 154.960773,72.0071591 155.218262,72.4765625 C155.47575,72.9459659 155.604492,73.4791637 155.604492,74.0761719 L153.601562,74.0761719 C153.601562,73.6113258 153.502442,73.2569999 153.304199,73.0131836 C153.105956,72.7693673 152.819989,72.6474609 152.446289,72.6474609 C152.095376,72.6474609 151.821941,72.7511383 151.625977,72.9584961 C151.430012,73.1658539 151.332031,73.4449852 151.332031,73.7958984 C151.332031,74.0693373 151.441405,74.3165679 151.660156,74.5375977 C151.878907,74.7586274 152.266273,74.987629 152.822266,75.2246094 C153.792974,75.5755226 154.498207,76.0061823 154.937988,76.5166016 C155.377769,77.0270208 155.597656,77.6764283 155.597656,78.4648438 C155.597656,79.3307335 155.321943,80.0074845 154.770508,80.4951172 C154.219073,80.9827498 153.469406,81.2265625 152.521484,81.2265625 C151.878903,81.2265625 151.293297,81.0944024 150.764648,80.8300781 C150.236,80.5657539 149.82243,80.1875025 149.523926,79.6953125 C149.225422,79.2031225 149.076172,78.6220737 149.076172,77.9521484 L151.092773,77.9521484 C151.092773,78.5263701 151.204426,78.9433581 151.427734,79.203125 C151.651043,79.4628919 152.015622,79.5927734 152.521484,79.5927734 C153.223311,79.5927734 153.574219,79.2213579 153.574219,78.4785156 Z M163.376953,72.8115234 L160.916016,72.8115234 L160.916016,81.0898438 L158.899414,81.0898438 L158.899414,72.8115234 L156.479492,72.8115234 L156.479492,71.1367188 L163.376953,71.1367188 L163.376953,72.8115234 Z M162.830078,80.1054688 C162.830078,79.7955714 162.933755,79.5403656 163.141113,79.3398438 C163.348471,79.1393219 163.618488,79.0390625 163.951172,79.0390625 C164.274741,79.0390625 164.543619,79.1381826 164.757812,79.3364258 C164.972006,79.534669 165.079102,79.7910141 165.079102,80.1054688 C165.079102,80.4244808 164.970867,80.6808259 164.754395,80.8745117 C164.537922,81.0681976 164.270184,81.1650391 163.951172,81.1650391 C163.627603,81.1650391 163.359864,81.0670583 163.147949,80.8710938 C162.936034,80.6751292 162.830078,80.4199234 162.830078,80.1054688 Z M175.78418,81.0898438 L169.918945,81.0898438 L169.918945,79.7226562 L172.612305,76.2978516 C172.954103,75.8238909 173.205891,75.4080422 173.367676,75.050293 C173.52946,74.6925438 173.610352,74.349611 173.610352,74.0214844 C173.610352,73.5794249 173.534018,73.2330742 173.381348,72.9824219 C173.228678,72.7317696 173.00879,72.6064453 172.72168,72.6064453 C172.407225,72.6064453 172.157716,72.7522772 171.973145,73.0439453 C171.788573,73.3356134 171.696289,73.7457656 171.696289,74.2744141 L169.754883,74.2744141 C169.754883,73.6637339 169.881346,73.1054713 170.134277,72.5996094 C170.387208,72.0937475 170.742673,71.700685 171.200684,71.4204102 C171.658694,71.1401353 172.17708,71 172.755859,71 C173.644536,71 174.333819,71.244952 174.82373,71.7348633 C175.313642,72.2247746 175.558594,72.9208939 175.558594,73.8232422 C175.558594,74.3837919 175.423016,74.9523083 175.151855,75.5288086 C174.880695,76.1053089 174.389652,76.8151 173.678711,77.6582031 L172.400391,79.4833984 L175.78418,79.4833984 L175.78418,81.0898438 Z M182.78418,76.9746094 C182.78418,78.3509183 182.53467,79.4036422 182.035645,80.1328125 C181.536619,80.8619828 180.824549,81.2265625 179.899414,81.2265625 C178.983394,81.2265625 178.275881,80.8722366 177.776855,80.1635742 C177.27783,79.4549118 177.019206,78.4397853 177.000977,77.1181641 L177.000977,75.2382812 C177.000977,73.8665296 177.249346,72.8172237 177.746094,72.090332 C178.242841,71.3634404 178.95605,71 179.885742,71 C180.815434,71 181.528643,71.3600224 182.025391,72.0800781 C182.522138,72.8001338 182.775065,73.8277928 182.78418,75.1630859 L182.78418,76.9746094 Z M180.842773,74.9580078 C180.842773,74.1741497 180.7653,73.586265 180.610352,73.1943359 C180.455403,72.8024069 180.213869,72.6064453 179.885742,72.6064453 C179.270505,72.6064453 178.951498,73.3242116 178.928711,74.7597656 L178.928711,77.2412109 C178.928711,78.0432983 179.007323,78.6402975 179.164551,79.0322266 C179.321778,79.4241556 179.56673,79.6201172 179.899414,79.6201172 C180.213869,79.6201172 180.447428,79.436688 180.600098,79.0698242 C180.752768,78.7029604 180.833659,78.1412798 180.842773,77.3847656 L180.842773,74.9580078 Z M189.948242,81.0898438 L184.083008,81.0898438 L184.083008,79.7226562 L186.776367,76.2978516 C187.118166,75.8238909 187.369954,75.4080422 187.531738,75.050293 C187.693523,74.6925438 187.774414,74.349611 187.774414,74.0214844 C187.774414,73.5794249 187.69808,73.2330742 187.54541,72.9824219 C187.39274,72.7317696 187.172853,72.6064453 186.885742,72.6064453 C186.571287,72.6064453 186.321778,72.7522772 186.137207,73.0439453 C185.952636,73.3356134 185.860352,73.7457656 185.860352,74.2744141 L183.918945,74.2744141 C183.918945,73.6637339 184.045409,73.1054713 184.29834,72.5996094 C184.551271,72.0937475 184.906736,71.700685 185.364746,71.4204102 C185.822756,71.1401353 186.341143,71 186.919922,71 C187.808598,71 188.497882,71.244952 188.987793,71.7348633 C189.477704,72.2247746 189.722656,72.9208939 189.722656,73.8232422 C189.722656,74.3837919 189.587078,74.9523083 189.315918,75.5288086 C189.044758,76.1053089 188.553714,76.8151 187.842773,77.6582031 L186.564453,79.4833984 L189.948242,79.4833984 L189.948242,81.0898438 Z M195.423828,81.0898438 L193.482422,81.0898438 L193.482422,73.4882812 L191.588867,74.2197266 L191.588867,72.6064453 L195.21875,71.1230469 L195.423828,71.1230469 L195.423828,81.0898438 Z" id="EST.2021"></path>
        </g>
    </g>
</svg>