
<svg width="339px" height="83px" viewBox="0 0 339 83" version="1.1" xmlns="http://www.w3.org/2000/svg" xmlns:xlink="http://www.w3.org/1999/xlink">
    <g id="Page-1" stroke="none" stroke-width="1" fill="none" fill-rule="evenodd">
        <g id="Group" fill="#312F2E" fill-rule="nonzero">
            <g id="logo">
                <path d="M1.95,58.1 L1.75,55.2 L1.71043151,53.8271932 C1.70432526,53.5095156 1.7,53.1470588 1.7,52.75 L1.52899668,41.1284903 C1.51141498,39.6596314 1.5,38.3431034 1.5,37.35 L1.5,23.4 L0.6,23.4 L0.5,23.7 L0.502807617,40.3348755 C0.530273438,45.6597656 0.75,56.634375 0.75,57.15 L0.9,59.1 L9.95,59.1 L10.052832,59.0525391 C10.1539063,59.0085938 10.30625,58.95 10.4,58.95 C10.55,58.8 11.1,58.5 11.25,58.5 L11.75,58.1 L1.95,58.1 Z M10.1,44.1 C10.1,41.85 9.4,41.65 8.2,41.65 L8.2,42.7 C8.5,42.8 8.75,42.95 8.9,43.15 L8.99080933,43.3597394 C9.11851852,43.6444444 9.3,44.0333333 9.3,44.15 L9.38245926,45.4365926 C9.39288889,45.6262222 9.4,45.7933333 9.4,45.9 L9.4,51.95 C9.7,51.8 9.9,51.55 10.1,51.15 L10.1,44.1 Z M7.95,27.4 L7.95,28.7 C8.15,28.95 8.35,29.25 8.45,29.55 L8.46893004,30.3006173 C8.5063786,31.3679012 8.58729424,33.0871914 8.59866255,33.7632716 L8.6,35.75 C8.95,35.65 9.3,35.45 9.3,35.2 L9.2983965,30.7348397 C9.28877551,29.0765306 9.22142857,27.35 8.75,27.35 C8.65,27.35 8.55,27.4 8.5,27.4 L7.95,27.4 Z M2.9,57.1 L11.95,57.1 L12.052832,57.0525391 C12.1539063,57.0085938 12.30625,56.95 12.4,56.95 C12.55,56.8 13.1,56.5 13.25,56.5 C15.75,54.85 16.15,50.8 16.15,48.1 C16.15,46.45 16.15,44.75 15.75,43.1 C15.6,42.4 15.2,41.3 14.8,40.7 C14.8,40.55 14.1,40 13.8,39.7 C13.5,39.45 12.55,39.05 12.55,38.5 C12.55,38.05 12.95,38.05 13.25,37.8 L13.4368896,37.531405 C13.5619835,37.3578512 13.7181818,37.1545455 13.8,37.1 C13.8,36.95 14.1,36.65 14.1,36.65 C14.95,35 15.2,33.75 15.2,31.75 C15.2,29.55 15.05,27.3 14.65,25.05 L14.35,24.65 C14.35,24.5 13.95,23.8 13.8,23.65 L13.0307692,22.9026172 C12.8310651,22.7047337 12.6461538,22.5153846 12.55,22.4 C12.15,22.0444444 11.5524691,21.8864198 11.14369,21.7503429 L10.9994256,21.6986368 C10.9896605,21.6833333 10.8138889,21.5416667 7.65,21.4 L2.6,21.4 L2.5,21.7 L2.50280762,38.3348755 C2.53027344,43.6597656 2.75,54.634375 2.75,55.15 L2.9,57.1 Z M7.25,26.75 C7.25,26.05 8.2,26.2 8.6,26.2 C8.9,26.2 9.2,26.05 9.45,26.35 C9.9,26.6 10.3,27 10.45,27.55 L10.46893,28.3006173 C10.5063786,29.3679012 10.5872942,31.0871914 10.5986626,31.7632716 L10.6,35 C10.6,35.15 10.45,35.4 10.45,35.4 C9.9,36.25 9.2,36.65 8.05,36.65 C7.75,36.65 7.25,36.5 7.25,36.1 L7.25,26.75 Z M7.65,52.75 L7.5,52.6 L7.5,41.15 C7.5,41 7.5,40.55 7.75,40.45 L8.70908203,40.4513672 C9.38515625,40.4609375 10.50625,40.5375 10.9,41.15 L10.9908093,41.3597394 C11.1185185,41.6444444 11.3,42.0333333 11.3,42.15 L11.3824593,43.4365926 C11.3928889,43.6262222 11.4,43.7933333 11.4,43.9 L11.4,51.2 C10.9,52.45 10.05,52.9 8.6,52.9 L8.3648834,52.9098765 C8.12098765,52.9271605 7.96111111,52.9444444 7.65,52.75 Z M20.65,56.5 C20.7,56.85 20.85,57 21.2,57 L32,57 L32,52.95 C32,52.8 31.75,52.4 31.6,52.4 L25.7,52.4 C25.55,52.4 25.3,52.15 25.3,52 L25.3,27.25 L25.31893,26.6384774 C25.3563786,25.7263374 25.4372942,24.1708848 25.4486626,23.6108282 L25.45,22.3 L25,21.9 L20.95,21.75 C20.7,21.75 20.4,21.9 20.4,22.15 L20.4018308,46.3800634 C20.4189272,49.3843336 20.55,55.5163043 20.55,55.75 L20.65,56.5 Z M19.55,55.75 L19.55,54.6 L19.4299827,48.5521657 C19.4120983,47.4483932 19.4,46.4608696 19.4,45.8 L19.4,23.8 L18.95,23.75 C18.7,23.75 18.4,23.9 18.4,24.15 L18.4018308,48.3800634 C18.4189272,51.3843336 18.55,57.5163043 18.55,57.75 L18.65,58.5 C18.7,58.85 18.85,59 19.2,59 L30,59 L30,58 L21.2,58 C20.25,58 19.8,57.6 19.65,56.65 L19.55,55.75 Z M49.15,52.15 L49.25,51.75 C49.25,51.6 49.4,51.2 49.4,51.05 L49.4059616,50.6129312 C49.43384,49.25224 49.55,45.954 49.55,45.25 L49.55,34.95 C49.4,34.05 49.4,33.6 49.4,32.65 C49.4,32.1 49.7,31.55 49.7,31 C49.7,28.5 49.55,26.35 49.55,23.9 L49.4,23.6 C49.25,23.5 48.7,22.8 48.6,22.65 C48.15,22.1 48.45,21.7 47.65,21.7 L47.4492188,21.7039062 C47.26875,21.715625 47.1375,21.7625 46.95,21.95 L45.3,21.95 L45.05,22.1 L44.9,22.25 L44.65,52.15 L44.6055556,52.2592593 C44.55,52.3888889 44.45,52.6 44.35,52.7 C43.8,53.35 43,53.5 42.15,53.5 C41.6916667,53.5 41.3375,53.1180556 41.0585648,52.7592593 L40.893853,52.5386424 C40.8633218,52.4794118 40.7205882,52.1705882 40.5,51.2 L40.5,21.85 L40.1,21.7 L38.85,21.85 C38.7,22.1 38.55,22.25 38.3,22.25 C38.05,22.25 37.9,22.1 37.75,21.85 L35.85,21.85 L35.7,21.95 L35.6146664,25.204582 C35.6058264,25.6541617 35.6,26.0603448 35.6,26.35 L35.6,36.75 C35.6,36.9 35.7,37.3 35.7,37.45 C35.7,37.55 35.6,38.25 35.6,38.4 L35.6,39.1 C35.6,39.65 35.7,40.2 35.7,40.75 L35.7,40.9 C35.7,41 35.6,42.8 35.6,42.95 L35.6,48.4 L35.6138484,48.8440233 C35.6663265,49.9897959 35.85,52.5 35.85,53.1 C36.9,57.2 39.4,57.6 42.85,57.6 C46.45,57.6 48.2,55.55 49.15,52.8 L49.15,52.15 Z M33.85,23.85 L33.7,23.95 L33.6146664,27.204582 C33.6058264,27.6541617 33.6,28.0603448 33.6,28.35 L33.6,38.75 C33.6,38.9 33.7,39.3 33.7,39.45 C33.7,39.55 33.6,40.25 33.6,40.4 L33.6,41.1 C33.6,41.65 33.7,42.2 33.7,42.75 L33.7,42.9 C33.7,43 33.6,44.8 33.6,44.95 L33.6,50.4 C33.6,58.95 36.25,59.6 40.85,59.6 C42.5,59.6 43.8,59.15 44.75,58.4 C44.2,58.55 43.55,58.6 42.85,58.6 L42.0765315,58.5921703 C37.6423667,58.4934989 34.6,57.3391892 34.6,48.4 L34.6,42.95 L34.6135184,42.5522303 C34.6408284,41.9689349 34.7,41.0192308 34.7,40.75 C34.7,40.4 34.6,39.85 34.6,39.1 L34.6,38.4 L34.6432006,38.0741172 C34.6702479,37.8566116 34.7,37.5863636 34.7,37.45 L34.641701,37.1447874 C34.6197531,37.0117284 34.6,36.8611111 34.6,36.75 L34.6018519,25.712963 C34.6055556,25.2055556 34.6166667,24.55 34.65,23.85 L33.85,23.85 Z M43.05,24.1 L42.9,23.85 L42.65,52.5 C43.05,52.45 43.4,52.3 43.6,52.05 L43.65,52 C43.7,51.95 43.7,51.95 43.7,51.9 L43.65,51.9 C43.7,42.75 43.85,33.15 43.9,23.95 L43.3,23.95 L43.05,24.1 Z M54.45,21.75 L54.2,21.9 L54.2006904,55.2742911 C54.2079395,55.9412098 54.2913043,57.15 55.25,57.15 L55.5087409,57.1411893 C56.5344045,57.0804348 58.7217391,56.7152174 58.95,56.35 C59.8,56.35 59.3,57.2 61.45,57 L61.775,56.9125 C61.875,56.8875 61.95,56.875 61.95,56.9 C61.95,56.8 62.35,57.05 62.6,57.15 C63.3,57.15 63.9,57.25 64.5,57.25 C65.55,57.25 65.3,54.3 65.3,53.95 L65.3,53.05 L65,52.95 L63.6126093,52.9381924 C61.8002551,52.9117347 59.7321429,52.85 59.3,52.85 C58.8,52.7 58.8,51.9 58.8,51.65 L58.8,41.05 C58.8,40.65 59.3,40.55 59.55,40.55 C60.7,40.55 61.9,40.65 63.1,40.65 C63.25,40.55 63.35,40.4 63.35,40.25 L63.35,36.85 C63.35,36.5 63,36.5 62.7,36.5 L59.2,36.5 C58.6,36.5 58.65,31.8 58.65,30.15 L58.643161,29.8479646 C58.6126298,29.0048443 58.5088235,27.5411765 58.95,26.35 L64.6,26.35 C64.75,26.25 64.8,26 64.9,25.95 L64.9,22.3 L64.6,22.05 C62.65,21.8 57.6,21.75 54.45,21.75 Z M52.45,23.75 L52.2,23.9 L52.2006904,57.2742911 C52.2079395,57.9412098 52.2913043,59.15 53.25,59.15 L53.5087409,59.1411893 C54.5344045,59.0804348 56.7217391,58.7152174 56.95,58.35 C57.8,58.35 57.3,59.2 59.45,59 L59.775,58.9125 C59.875,58.8875 59.95,58.875 59.95,58.9 C59.95,58.8 60.35,59.05 60.6,59.15 C61.3,59.15 61.9,59.25 62.5,59.25 C62.95,59.25 63.15,58.7 63.25,58.05 C62.45,57.8 59.05,58.2 58.95,57.4 C57.85,57.85 55.95,58.15 55.25,58.15 C53.2,58.15 53.2,56 53.2,55.1 L53.2,23.75 L52.45,23.75 Z M62.6,28.35 C62.75,28.25 62.8,28 62.9,27.95 L62.9,27.35 L59.7,27.35 L59.63125,27.85 C59.6125,28.0125 59.6,28.175 59.6,28.35 L62.6,28.35 Z M61.1,42.65 C61.25,42.55 61.35,42.4 61.35,42.25 L61.35,41.65 C61.3,41.65 61.25,41.6 61.2,41.6 C60.7,41.6 60.25,41.55 59.8,41.55 L59.8,42.65 L61.1,42.65 Z M78.8,55.7 L78.95,55.7 C79.55,55.7 79.85,56.8 80.1,56.8 L82,56.8 C82.3076923,56.8 82.3786982,56.4745562 82.3950842,56.2105599 L82.4297376,53.2311953 C82.4734694,50.1153061 82.55,45.6 82.55,44.35 L82.55,39.8 L82.25,39.5 L82.1,39.5 C81.865625,39.5 80.0931641,39.6318359 79.6253296,39.6483154 L75.65,39.65 C75.5,39.65 75.25,39.8 75.25,40.1 L75.25,42.95 L75.5,43.25 L76.95,43.25 L77.1,43.4 C77.25,43.7 77.4,44.25 77.4,44.5 L77.4,50.7 C77.4,51.8 76.4,52.55 75.25,52.55 C74.7,52.55 73.65,52.1 73.65,51.4 L73.65,27.95 L73.6974609,27.847168 C73.7414062,27.7460938 73.8,27.59375 73.8,27.5 C74.25,26.55 75.1,26.4 76.1,26.4 C76.55,26.4 77.1,26.55 77.4,26.95 C77.5,27.2 77.95,27.8 77.95,27.8 L77.95,34.1 L78.25,34.4 L82,34.4 L82,26.95 C82,26.8107143 81.7413265,25.8091837 81.5842748,25.3465561 L81.55,25.25 C80.5,22.1 78.1,21.7 75.1,21.7 C74.25,21.7 73.5,21.8 72.65,22.2 C68.95,24.25 68.65,27.8 68.65,31.7 L68.65,49.8 C68.65,51 68.95,51.8 69.25,52.85 C70.1,55.7 71.8,56.8 74.7,56.8 C76.25,56.8 77.1,56.65 78.4,56 L78.8,55.7 Z M78.9,57 C78.85,57 78.85,56.95 78.8,56.9 C77.35,57.6 76.4,57.8 74.7,57.8 C71.5,57.8 69.4283747,56.3895317 68.3939422,53.4318224 L68.15,52.7 L67.9860768,52.0834019 C67.8012346,51.3771605 67.65,50.6944444 67.65,49.8 L67.65,31.7 C67.65,30.45 67.65,29.15 67.85,28 C67.15,29.8 67,31.9 67,34 L66.7,51.9 C66.65,53.05 66.95,53.9 67.25,54.9 C67.9765625,57.6609375 69.5946777,59.1080078 72.331633,59.1957535 L72.6,59.2 C74.2,59.25 75,58.9 76.35,58.2 L76.75,57.9 L76.9,57.95 C77.45,57.95 77.75,59.05 78.05,59.05 L79.9,59.1 C80.3,59.1 80.3,58.55 80.3,58.25 L80.3,57.8 L80.1,57.8 C78.9,57.8 79.2,57.4 78.9,57 Z M75.95,29.1 L76.0527047,29.2610068 C76.2322314,29.5318182 76.5,29.9 76.5,29.9 L76.4,36.6 L76.7,36.9 L80.25,36.95 L80.25,35.4 L77.85,35.4 L76.95,34.5 L77.05,28.1 L76.9028,27.9608 C76.778,27.836 76.61,27.65 76.55,27.5 C76.47,27.42 76.358,27.404 76.214,27.4008 L75.6789062,27.3984375 C75.2875,27.403125 74.9875,27.45 74.8,27.75 L74.7305664,27.9960938 C74.6890625,28.1328125 74.65,28.25 74.65,28.25 L74.65,28.45 C75.1,28.5 75.65,28.7 75.95,29.1 Z M74.65,43.85 L74.65,45.45 L75.1,45.45 L75.25,45.6 C75.4,45.9 75.55,46.45 75.55,46.75 L75.4,51.55 C75.95,51.5 76.4,51.15 76.4,50.7 L76.4,44.55 C76.4,44.5 76.3,44.4 76.3,44.25 L74.9,44.25 L74.65,43.85 Z M92.3,42.05 C92.3,41.95 92.15,41.3 92.15,41.15 C92.15,40.8 92.3,40.65 92.7,40.65 L92.9280075,40.6567978 C93.7967773,40.7055176 95.85,41.0609375 95.85,43.1 L95.8638484,43.7145773 C95.9145773,45.2787172 96.0879009,48.87793 96.0993994,51.9808793 L96.1,53.3573054 C96.1088757,54.5798817 96.1769231,55.9230769 96.6,57 L100.9,57 L101.044461,57.0069971 C101.360204,57.0306122 101.807143,57.0857143 101.85,56.7 C101.85,56.1 101.55,55.55 101.45,55 C101.096154,53.4961538 101.055325,50.6619822 101.050614,47.5012489 L101.05,46.25 C101.05,46.15 100.8,42.7 100.8,42.6 C100.5625,40.985 99.738375,40.227375 99.013525,39.8127 L98.9,39.75 C98.25,39.35 97.95,39.75 97.95,38.95 C97.95,38.65 99.25,37.85 99.65,37.35 C100.898,35.862 101.04008,32.25432 101.04945,30.3755616 L101.05,30.15 C101.05,27.3 100.8,24.05 98.2,22.3 C97.3538462,21.75 93.25,21.6295858 89.7657487,21.635405 L87.95,21.65 C87.25,21.65 87,21.8 87.1,22.7 L87.1982103,53.5694989 C87.1993701,54.5646259 87.2,55.5436508 87.2,56.5 C87.25,56.8 87.6,56.9 87.9,56.9 C88.1,56.9 88.25,56.85 88.4,56.85 L88.5685935,56.8557399 C89.1738754,56.883218 91.0294118,57 91.25,57 C91.2,56.95 92.3,57.1 92.3,56.85 L92.3,42.05 Z M92.45,37 L92.4293111,35.4147981 C92.3917444,33.2795259 92.3149778,29.869437 92.3019111,28.5630815 L92.3,28.25 C92.3,27.95 92.1,26.1 92.8,26.1 C94.3,26.1 95.6,26.5 95.95,27.95 L95.9403277,29.8867746 C95.9152367,32.2788462 95.85,33.4903846 95.85,35.55 C95.45,36.85 94.3,37.25 93.1,37.25 L92.9085048,37.2472565 C92.6962963,37.2376543 92.5277778,37.1944444 92.45,37 Z M85.1,24.7 L85.1982103,55.5694989 C85.1993701,56.5646259 85.2,57.5436508 85.2,58.5 C85.25,58.8 85.6,58.9 85.9,58.9 C86.1,58.9 86.25,58.85 86.4,58.85 L86.5685935,58.8557399 C87.1738754,58.883218 89.0294118,59 89.25,59 C89.2,58.95 90.3,59.1 90.3,58.85 L90.3,58 C90.1,58 89.9,57.95 89.7,57.95 L88.4858796,57.8539352 C88.4458333,57.8513889 88.4166667,57.85 88.4,57.85 L88.2,57.85 C88.1,57.85 88,57.9 87.9,57.9 C87.2,57.9 86.35,57.6 86.2,56.65 L86.1981481,49.2555556 C86.1944444,44.1666667 86.1833333,38.9 86.15,34.3 L86.1415674,30.9860442 C86.1273157,28.0205104 86.1,25.5347826 86.1,23.65 L85.95,23.65 C85.25,23.65 85,23.8 85.1,24.7 Z M93.85,45.1 L93.8638484,45.7145773 C93.9145773,47.2787172 94.0879009,50.87793 94.0993994,53.9808793 L94.1,55.3573054 C94.1088757,56.5798817 94.1769231,57.9230769 94.6,59 L98.9,59 L99.0444606,59.0069971 C99.3602041,59.0306122 99.8071429,59.0857143 99.85,58.7 C99.85,58.45 99.8,58.2 99.75,58 L95.9,58 C95.2,56.1625 95.1125,54.5929687 95.1015625,53.2244141 L95.1,52.3 C95.1,49.85 94.95,47.05 94.9,45.15 L94.8814869,44.7976676 C94.85,44.0795918 94.85,43.3142857 94.85,43.1 C94.85,42.1 93.95,41.8 93.25,41.7 C93.3,41.85 93.3,42 93.3,42.05 L93.3,43.6 C93.6,43.95 93.85,44.45 93.85,45.1 Z M93.95,29.95 L93.9412847,31.4663787 C93.9169421,33.5371901 93.85,34.7681818 93.85,36.2 C94.3,36.05 94.65,35.8 94.85,35.35 L94.8578125,34.575 C94.871875,33.84375 94.9,33.225 94.9,32.55 L94.9231812,31.8644531 C94.95,30.8513672 94.95,29.70625 94.95,28 C94.65,27.35 93.8,27.1 92.9,27.1 C93.15,27.2 93.25,27.7 93.3,27.95 L93.3,28.8 C93.6,29.1 93.8,29.45 93.95,29.95 Z M115.45,21.9 L109.9,21.9 C109.5,21.9 109.25,22.8 109.25,23.45 C108.15,33.2 106.7,42.1 105.65,51.9 C105.45,53.45 105.1,55.05 105.1,56.6 C105.3,56.95 105.65,56.85 105.9,56.85 C106.75,56.85 107.6,56.85 108.4,56.7 C110,56.7 109,52.05 110.05,50.65 L110.260816,50.6569902 C110.923346,50.6865784 112.78913,50.8 114.05,50.8 C114.9,50.8 114.9,53.9 115,55.05 C115,56.15 115.45,57 115.45,57 L116.631333,56.9924148 C118.056444,56.9715556 120.1,56.8933333 120.1,56.6 C120.2,56.55 119.95,56.25 119.95,55.75 C119.7,54.1 119.55,52.6 119.4,50.95 L119.363537,50.7742691 C119.176278,49.7181926 118.693103,45.262069 118.6,44.75 C117.55,36.9 116.85,30.05 115.7,22.2 L115.45,21.9 Z M115.15,30.55 C114.9,30.55 114.9,30.45 114.9,30.15 C114.9,30 115,29.9 115.3,29.9 L115.431481,29.9037037 C115.505556,29.9111111 115.55,29.9333333 115.55,30 C115.55,30.3 115.45,30.55 115.15,30.55 Z M110.6,46.5 C110.55,46.5 110.2,46.25 110.35,46.1 C110.35,45.3 110.45,44.6 110.6,43.8 L111.0832,39.5856 C111.328,37.476 111.58,35.37 111.85,33.3 L112.1,33 C113.05,33.45 113.15,39.2 113.35,41.45 C113.35,42.8 113.9,44.6 113.9,46.25 C113.9,46.4 113.75,46.8 113.5,46.8 L110.6,46.5 Z M107.25,25.45 C106.15,35.2 104.7,44.1 103.65,53.9 C103.45,55.45 103.1,57.05 103.1,58.6 C103.3,58.95 103.65,58.85 103.9,58.85 C104.75,58.85 105.6,58.85 106.4,58.7 C106.8,58.7 107.05,58.35 107.2,57.85 L105.75,57.85 C105.25,57.85 104.7,58.1 104.1,56.85 C104.1,55.3178571 104.272449,54.432398 104.417183,53.4329993 L104.65,51.8 C105.2,46.9 105.95,41.4 106.55,36.7 L107.272886,31.2842566 C107.595918,28.8632653 107.914286,26.4142857 108.2,23.9 L107.9,23.9 C107.5,23.9 107.25,24.8 107.25,25.45 Z M112.05,52.8 C112.9,52.8 112.9,55.9 113,57.05 C113,58.15 113.45,59 113.45,59 L114.631333,58.9924148 C116.056444,58.9715556 118.1,58.8933333 118.1,58.6 C118.2,58.55 117.95,58.3 117.95,57.85 C116.65,58 115.35,58 114.85,58 L114.746955,57.7921632 C114.53318,57.3426071 114.056937,56.238662 114.004681,55.2273527 L114,55.05 C114,54.85 113.95,54.65 113.95,54.35 L113.90162,53.8416667 C113.826389,52.9527778 113.791667,51.925 114,51.8 C113,51.8 111.55,51.75 110.75,51.7 L110.65,51.7 C110.55,52 110.5,52.35 110.5,52.8 L112.05,52.8 Z M111.85,43.45 C111.85,44.1 112,44.9 112.1,45.7 L112.8,45.75 C112.75,45.1 112.65,44.4 112.55,43.75 L112.55,43.8 C112.4,43 112.3,42.25 112.3,41.45 L112.2,39.7 L112.1,38.7 L111.75,42.05 C111.75,42.6 111.8,43.05 111.85,43.45 Z M131.65,56.95 C134.4,56.6 136,54.5 136.75,51.75 C136.75,51.6 136.9,51.25 136.9,51.25 L136.9,46 L136.511007,44.9136889 C136.447778,44.7435556 136.39,44.5933333 136.35,44.5 C135.05,40.7 131.9,37.25 129.35,34.55 C128.0675,33.0775 127.6875,31.7855 127.652706,30.0309687 L127.644888,28.9396439 C127.643652,27.5102539 127.778125,26.3 129.55,26.3 C130.6,26.3 130.8,26.75 131.05,27.8 C131.15,29.3 131.15,30.9 131.15,32.4 L131.167969,32.4625 C131.203125,32.575 131.2875,32.8 131.4,32.8 L135.3,32.8 C135.3,32.8 135.404167,32.6958333 135.438889,32.5743056 L135.45,32.5 C135.45,32.4 135.55,32.1 135.55,32 L135.551157,29.3275463 C135.543056,27.4375 135.425,25.125 134.3,23.75 L133.666773,23.0949249 C133.489941,22.9162722 133.315385,22.7461538 133.2,22.65 C133.1,22.5 132.5,22.15 132.35,22.15 C131.4,21.75 130.45,21.75 129.35,21.75 C128.35,21.75 127.5,21.9 126.55,22.25 C124.95,23 123.75,24.65 123.25,26.4 C123.25,26.5 123.15,27.15 123.15,27.25 C122.9,28.5 122.9,29.65 122.9,30.9 C122.9,36.05 127.2,40.45 130.35,43.85 C131.68,45.275 132.1075,47.015875 132.146925,49.0297563 L132.15,49.35 C132.15,50.6 132.05,52.35 130.6,52.75 L130.35,52.75 C129.7,52.75 128.75,52.6 128.35,52.1 L127.75,51.25 L127.741285,51.0351991 C127.716942,50.6115702 127.65,49.8045455 127.65,49.6 L127.65,44.6 L127.5,44.5 L123.15,44.5 L123.05,44.6 L123.05,48.35 L123.083,49.0236459 C123.11213,49.5215976 123.15,50.1346154 123.15,50.35 L123.224529,51.0481337 C123.468522,53.2198231 123.882258,55.3467742 126.05,56.25 C126.8,56.5 127.65,56.95 128.35,56.95 L131.65,56.95 Z M122.272199,26.2355682 L122.267764,26.2454946 C121.784929,26.9324464 121.445674,27.6662232 121.25,28.4 C121.25,28.5 121.15,29.15 121.15,29.25 C120.9,30.5 120.9,31.65 120.9,32.9 C120.9,36.95 123.55,40.5 126.2,43.5 L127.5,43.5 L128.65,43.6 L128.65,46.2 C129.8,47.65 130.15,49.4 130.15,51.35 L130.15,51.75 L130.5,51.75 C131.05,51.35 131.15,50.2 131.15,49.35 C131.15,47.45 130.8,45.85 129.6,44.55 L128.453849,43.3161415 C125.3961,40.0023502 121.9,35.8636364 121.9,30.9 L121.903906,29.91875 C121.915625,28.934375 121.9625,27.95 122.15,27.05 L122.1532,26.966 C122.158,26.912 122.17,26.84 122.2,26.75 C122.2,26.55 122.25,26.4 122.25,26.35 C122.25,26.3245707 122.25,26.2991414 122.256578,26.2737121 L122.267764,26.2454946 L122.272199,26.2355682 Z M128.35,57.95 C127.55,57.95 126.95,57.65 126.35,57.45 C126.1,57.35 125.9,57.2 125.7,57.2 C122.7,55.95 122.4,53.15 122.15,50.45 L122.147363,50.1168945 C122.142969,49.8820312 122.13125,49.58125 122.1,49.3 C122.1,48.9 122.05,48.45 122.05,48.35 L122.1,46.5 L121.15,46.5 L121.05,46.6 L121.05,50.35 C121.05,50.6 121.15,52 121.15,52.35 L121.224529,53.0481337 C121.468522,55.2198231 121.882258,57.3467742 124.05,58.25 C124.8,58.5 125.65,58.95 126.35,58.95 L129.65,58.95 C130.65,58.8 131.55,58.45 132.25,57.85 L131.8,57.95 L128.35,57.95 Z M129.05,29.8 C129.1,30.7 129.15,31.6 129.15,32.5 C129.35,33 129.65,33.45 130.1,33.9 L130.1,33.85 L130.95,34.8 L133.3,34.8 C133.3,34.8 133.404167,34.6958333 133.438889,34.5743056 L133.45,34.5 C133.45,34.4 133.55,34.1 133.55,34 L133.55,33.8 L131.4,33.8 C130.5,33.8 130.15,32.45 130.15,32.45 C130.15,30.95 130.15,29.4 130.05,27.9 L129.981713,27.6819444 C129.876389,27.3694444 129.8,27.3 129.55,27.3 C128.8,27.3 128.65,27.95 128.65,28.75 C128.8,29 128.9,29.35 129.05,29.8 Z M149.25,56.95 C152,56.6 153.6,54.5 154.35,51.75 C154.35,51.6 154.5,51.25 154.5,51.25 L154.5,46 L154.111007,44.9136889 C154.047778,44.7435556 153.99,44.5933333 153.95,44.5 C152.65,40.7 149.5,37.25 146.95,34.55 C145.6675,33.0775 145.2875,31.7855 145.252706,30.0309687 L145.244888,28.9396439 C145.243652,27.5102539 145.378125,26.3 147.15,26.3 C148.2,26.3 148.4,26.75 148.65,27.8 C148.75,29.3 148.75,30.9 148.75,32.4 L148.767969,32.4625 C148.803125,32.575 148.8875,32.8 149,32.8 L152.9,32.8 L152.938889,32.7555556 C152.983333,32.7 153.05,32.6 153.05,32.5 C153.05,32.4 153.15,32.1 153.15,32 L153.151157,29.3275463 C153.143056,27.4375 153.025,25.125 151.9,23.75 L151.266773,23.0949249 C151.089941,22.9162722 150.915385,22.7461538 150.8,22.65 C150.7,22.5 150.1,22.15 149.95,22.15 C149,21.75 148.05,21.75 146.95,21.75 C145.95,21.75 145.1,21.9 144.15,22.25 C142.55,23 141.35,24.65 140.85,26.4 C140.85,26.5 140.75,27.15 140.75,27.25 C140.5,28.5 140.5,29.65 140.5,30.9 C140.5,36.05 144.8,40.45 147.95,43.85 C149.35,45.35 149.75,47.2 149.75,49.35 L149.74744,49.6586528 C149.72536,50.87136 149.534,52.382 148.2,52.75 L147.95,52.75 C147.3,52.75 146.35,52.6 145.95,52.1 L145.35,51.25 L145.341285,51.0351991 C145.316942,50.6115702 145.25,49.8045455 145.25,49.6 L145.25,44.6 L145.1,44.5 L140.75,44.5 L140.65,44.6 L140.65,48.35 C140.65,48.6 140.75,50 140.75,50.35 L140.824529,51.0481337 C141.068522,53.2198231 141.482258,55.3467742 143.65,56.25 C144.4,56.5 145.25,56.95 145.95,56.95 L149.25,56.95 Z M139.872199,26.2355682 L139.867764,26.2454946 C139.384929,26.9324464 139.045674,27.6662232 138.85,28.4 C138.85,28.5 138.75,29.15 138.75,29.25 C138.5,30.5 138.5,31.65 138.5,32.9 C138.5,36.95 141.15,40.5 143.8,43.5 L145.1,43.5 L146.25,43.6 L146.25,46.2 C147.4,47.65 147.75,49.4 147.75,51.35 L147.75,51.75 L148.1,51.75 C148.65,51.35 148.75,50.2 148.75,49.35 C148.75,47.45 148.4,45.85 147.2,44.55 L146.053849,43.3161415 C142.9961,40.0023502 139.5,35.8636364 139.5,30.9 C139.5,29.6 139.5,28.25 139.75,27.05 L139.7532,26.966 C139.758,26.912 139.77,26.84 139.8,26.75 C139.8,26.55 139.85,26.4 139.85,26.35 C139.85,26.3245707 139.85,26.2991414 139.856578,26.2737121 L139.867764,26.2454946 L139.872199,26.2355682 Z M145.95,57.95 C145.15,57.95 144.55,57.65 143.95,57.45 C143.7,57.35 143.5,57.2 143.3,57.2 C140.3,55.95 140,53.15 139.75,50.45 L139.747363,50.1168945 C139.742969,49.8820312 139.73125,49.58125 139.7,49.3 C139.7,48.9 139.65,48.45 139.65,48.35 L139.7,46.5 L138.75,46.5 L138.65,46.6 L138.65,50.35 C138.65,50.6 138.75,52 138.75,52.35 L138.824529,53.0481337 C139.068522,55.2198231 139.482258,57.3467742 141.65,58.25 C142.4,58.5 143.25,58.95 143.95,58.95 L147.25,58.95 C148.25,58.8 149.15,58.45 149.85,57.85 L149.4,57.95 L145.95,57.95 Z M146.65,29.8 C146.7,30.7 146.75,31.6 146.75,32.5 C146.95,33 147.25,33.45 147.7,33.9 L147.7,33.85 L148.55,34.8 L150.9,34.8 L150.938889,34.7555556 C150.983333,34.7 151.05,34.6 151.05,34.5 C151.05,34.4 151.15,34.1 151.15,34 L151.15,33.8 L149,33.8 C148.1,33.8 147.75,32.45 147.75,32.45 C147.75,30.95 147.75,29.4 147.65,27.9 L147.581713,27.6819444 C147.476389,27.3694444 147.4,27.3 147.15,27.3 C146.4,27.3 146.25,27.95 146.25,28.75 C146.4,29 146.5,29.35 146.65,29.8 Z M175.15,57.2 L175.55,56.85 L175.559936,56.1229152 C175.60112,54.086304 175.7579,49.19508 175.793,44.2491 L175.795516,41.4997806 C175.770571,38.1425089 175.65,27.6327586 175.65,27.05 C175.8,26.8 175.8,26.55 176.05,26.55 C177.2,26.55 178.2,26.7 179.7,26.7 C180.25,25.55 180.05,24.2 180.1,22.4 L179.95,22.25 L179.619831,22.2134771 C177.401446,22 171.878205,22 166.85,22 C166.7,22.15 166.6,22.25 166.6,22.4 L166.6,25.8 C166.6,25.9 166.85,26.4 167.1,26.4 L171,26.4 C171.218182,26.7636364 171.25124,26.8628099 171.253043,27.1014275 L171.25,27.45 C171.25,37.15 170.9,47 170.9,56.7 C170.9,56.85 171.15,57.2 171.25,57.2 L175.15,57.2 Z M171.25,58.2 C170.85,58.2 169.9,57.15 169.9,56.7 C169.9,51.85 169.95,47 170.05,42.1 C170.13,38.18 170.21,34.26 170.2388,30.3656 L170.25,27.4 L166,27.4 L165.6,25.8 L165.6,24 L164.85,24 C164.7,24.15 164.6,24.25 164.6,24.4 L164.6,27.8 C164.6,27.9 164.85,28.4 165.1,28.4 L169,28.4 C169.218182,28.7636364 169.25124,28.8628099 169.253043,29.1014275 L169.25,29.45 C169.25,39.15 168.9,49 168.9,58.7 C168.9,58.85 169.15,59.2 169.25,59.2 L173.15,59.2 L173.55,58.85 L173.55,58.2 L171.25,58.2 Z M177.7,28.7 C177.85,28.4 177.95,28.05 178,27.65 C177.85,27.65 177.7,27.65 177.55,27.6 C177.2,27.6 176.9,27.55 176.65,27.55 L176.65,28.7 L177.7,28.7 Z M189.35,56.85 L189.35,42.05 L189.33107,41.9133745 C189.290741,41.6858025 189.2,41.2666667 189.2,41.15 C189.2,40.8 189.35,40.65 189.75,40.65 L189.978008,40.6567978 C190.846777,40.7055176 192.9,41.0609375 192.9,43.1 L192.913848,43.7145773 C192.964577,45.2787172 193.137901,48.87793 193.149399,51.9808793 L193.148817,52.994538 C193.148817,54.3085799 193.184615,55.8153846 193.65,57 L197.95,57 L198.094461,57.0069971 C198.410204,57.0306122 198.857143,57.0857143 198.9,56.7 C198.9,56.1857143 198.679592,55.7081633 198.553644,55.2358601 L198.5,55 C198.1,53.3 198.1,49.9 198.1,46.25 L197.85,42.6 L197.85,42.6 C197.6125,40.985 196.788375,40.227375 196.063525,39.8127 L195.95,39.75 C195.3,39.35 195,39.75 195,38.95 C195,38.65 196.3,37.85 196.7,37.35 C198,35.8 198.1,31.95 198.1,30.15 L198.096558,29.6114014 C198.05957,26.8996094 197.6875,23.940625 195.25,22.3 C194.403846,21.75 190.3,21.6295858 186.815749,21.635405 L185,21.65 C184.3,21.65 184.05,21.8 184.15,22.7 L184.24821,53.5694989 C184.24937,54.5646259 184.25,55.5436508 184.25,56.5 C184.3,56.8 184.65,56.9 184.95,56.9 C185.15,56.9 185.3,56.85 185.45,56.85 L185.618594,56.8557399 C186.223875,56.883218 188.079412,57 188.3,57 C188.25,56.95 189.35,57.1 189.35,56.85 Z M189.5,37 L189.479311,35.4147981 C189.438167,33.0761667 189.35,29.2083333 189.35,28.25 L189.330834,27.8180002 C189.305782,27.1739229 189.316667,26.1 189.85,26.1 C191.35,26.1 192.65,26.5 193,27.95 L192.990328,29.8867746 C192.965237,32.2788462 192.9,33.4903846 192.9,35.55 C192.5,36.85 191.35,37.25 190.15,37.25 L189.958505,37.2472565 C189.746296,37.2376543 189.577778,37.1944444 189.5,37 Z M182.15,24.7 L182.24821,55.5694989 C182.24937,56.5646259 182.25,57.5436508 182.25,58.5 C182.3,58.8 182.65,58.9 182.95,58.9 C183.15,58.9 183.3,58.85 183.45,58.85 L183.618594,58.8557399 C184.223875,58.883218 186.079412,59 186.3,59 C186.25,58.95 187.35,59.1 187.35,58.85 L187.35,58 C187.15,58 186.95,57.95 186.75,57.95 L185.53588,57.8539352 C185.495833,57.8513889 185.466667,57.85 185.45,57.85 L185.25,57.85 C185.15,57.85 185.05,57.9 184.95,57.9 C184.25,57.9 183.4,57.6 183.25,56.65 L183.242415,44.6503556 C183.235778,41.0666667 183.223333,37.52 183.2,34.3 L183.191567,30.9860442 C183.177316,28.0205104 183.15,25.5347826 183.15,23.65 L183,23.65 C182.3,23.65 182.05,23.8 182.15,24.7 Z M190.9,45.1 L190.913848,45.7145773 C190.964577,47.2787172 191.137901,50.87793 191.149399,53.9808793 L191.148817,54.994538 C191.148817,56.3085799 191.184615,57.8153846 191.65,59 L195.95,59 L196.094461,59.0069971 C196.410204,59.0306122 196.857143,59.0857143 196.9,58.7 C196.9,58.45 196.85,58.2 196.8,58 L192.95,58 C192.25,56.1625 192.1625,54.5929687 192.151563,53.2244141 L192.15,52.3 C192.15,49.85 192,47.05 191.95,45.15 L191.931487,44.7976676 C191.9,44.0795918 191.9,43.3142857 191.9,43.1 C191.9,42.1 191,41.8 190.3,41.7 C190.35,41.85 190.35,42 190.35,42.05 L190.35,43.6 C190.65,43.95 190.9,44.45 190.9,45.1 Z M191,29.95 L190.991285,31.4663787 C190.966942,33.5371901 190.9,34.7681818 190.9,36.2 C191.35,36.05 191.7,35.8 191.9,35.35 C191.9,34.25 191.95,33.45 191.95,32.55 L191.973181,31.8644531 C192,30.8513672 192,29.70625 192,28 C191.7,27.35 190.85,27.1 189.95,27.1 C190.2,27.2 190.3,27.7 190.35,27.95 L190.35,28.8 C190.65,29.1 190.85,29.45 191,29.95 Z M212.5,21.9 L206.95,21.9 C206.55,21.9 206.3,22.8 206.3,23.45 C205.2,33.2 203.75,42.1 202.7,51.9 C202.5,53.45 202.15,55.05 202.15,56.6 C202.35,56.95 202.7,56.85 202.95,56.85 C203.8,56.85 204.65,56.85 205.45,56.7 C207.05,56.7 206.05,52.05 207.1,50.65 L207.310816,50.6569902 C207.973346,50.6865784 209.83913,50.8 211.1,50.8 C211.95,50.8 211.95,53.9 212.05,55.05 C212.05,56.15 212.5,57 212.5,57 L213.681333,56.9924148 C215.106444,56.9715556 217.15,56.8933333 217.15,56.6 C217.25,56.55 217,56.25 217,55.75 C216.75,54.1 216.6,52.6 216.45,50.95 C216.3,50.4 215.75,45.3 215.65,44.75 C214.6,36.9 213.9,30.05 212.75,22.2 L212.5,21.9 Z M212.2,30.55 C211.95,30.55 211.95,30.45 211.95,30.15 C211.95,30 212.05,29.9 212.35,29.9 L212.481481,29.9037037 C212.555556,29.9111111 212.6,29.9333333 212.6,30 C212.6,30.3 212.5,30.55 212.2,30.55 Z M207.65,46.5 C207.6,46.5 207.25,46.25 207.4,46.1 C207.4,45.3 207.5,44.6 207.65,43.8 L208.1332,39.5856 C208.378,37.476 208.63,35.37 208.9,33.3 L209.15,33 C210.1,33.45 210.2,39.2 210.4,41.45 C210.4,42.8 210.95,44.6 210.95,46.25 C210.95,46.4 210.8,46.8 210.55,46.8 L207.65,46.5 Z M204.3,25.45 C203.2,35.2 201.75,44.1 200.7,53.9 C200.5,55.45 200.15,57.05 200.15,58.6 C200.35,58.95 200.7,58.85 200.95,58.85 C201.8,58.85 202.65,58.85 203.45,58.7 C203.85,58.7 204.1,58.35 204.25,57.85 L202.8,57.85 C202.3,57.85 201.75,58.1 201.15,56.85 C201.15,55.3178571 201.322449,54.432398 201.467183,53.4329993 L201.7,51.8 C202.25,46.9 203,41.4 203.6,36.7 L204.322886,31.2842566 C204.645918,28.8632653 204.964286,26.4142857 205.25,23.9 L204.95,23.9 C204.55,23.9 204.3,24.8 204.3,25.45 Z M209.1,52.8 C209.95,52.8 209.95,55.9 210.05,57.05 C210.05,58.15 210.5,59 210.5,59 L211.681333,58.9924148 C213.106444,58.9715556 215.15,58.8933333 215.15,58.6 C215.25,58.55 215,58.3 215,57.85 C213.7,58 212.4,58 211.9,58 L211.796955,57.7921632 C211.570605,57.3161626 211.05,56.1065217 211.05,55.05 C211.05,54.85 211,54.65 211,54.35 L210.95162,53.8416667 C210.876389,52.9527778 210.841667,51.925 211.05,51.8 C210.05,51.8 208.6,51.75 207.8,51.7 L207.7,51.7 C207.6,52 207.55,52.35 207.55,52.8 L209.1,52.8 Z M208.9,43.45 C208.9,44.1 209.05,44.9 209.15,45.7 L209.85,45.75 C209.8,45.1 209.7,44.4 209.6,43.75 L209.6,43.8 C209.45,43 209.35,42.25 209.35,41.45 L209.25,39.7 L209.15,38.7 L208.8,42.05 C208.8,42.6 208.85,43.05 208.9,43.45 Z M221.5,57.1 L223.064844,57.0976563 C223.690625,57.090625 224.225,57.0625 224.9,56.95 L225.7,57.1 L225.85,56.95 L226.603704,56.9240741 C227.160741,56.9003704 227.869481,56.8671852 228.26723,56.8548593 L228.5,56.85 C229.15,56.85 230.05,56.7 230.6,56.45 C233.517647,54.9441176 233.866436,52.7738754 233.897374,50.8563505 L233.95,29 L233.95,29 C233.95,26.9 233.5,24.8 232.05,23.2 L231.697085,22.8274052 C231.567638,22.6966472 231.425073,22.5698251 231.265452,22.4784257 L231.1,22.4 C230.35,22 229.3,21.9 228.5,21.9 L221.5,21.9 C221.35,21.9 221.1,22 220.95,22.15 L220.95,33.15 C220.95,33.55 221.1,35.75 221.1,36.15 L221.1,54.3 C221.1,54.4 221.2,55.35 221.2,55.65 L221.188889,56.137037 C221.188889,56.5 221.233333,56.9 221.5,57.1 Z M225.55,52.35 L225.7,26.55 L225.7,26.55 C225.839286,26.0392857 226.280357,26.1321429 226.582853,26.1480138 L226.65,26.15 C227.85,26.15 229.15,26.65 229.3,27.95 L229.345229,28.8426371 C229.375657,29.5411721 229.389181,30.1420361 229.395192,30.7626221 L229.388086,41.4654917 C229.375787,45.9343411 229.350794,50.4666667 229.3,51 C229,52.45 228,53 226.5,53 C226.1,53 225.55,52.85 225.55,52.35 Z M224.45,51.6 C224.2,51.6 224.2,51.45 224.2,51.2 C224.2,51.05 224.3,50.9 224.6,50.9 C224.75,50.9 224.85,50.9 224.85,51.05 C224.85,51.3 224.75,51.6 224.45,51.6 Z M220.9,57.9 C220.05,57.3 220.2,56.45 220.2,55.85 L220.196064,55.3823615 C220.190816,55.2336735 220.178571,55.05 220.15,54.85 C220.15,54.65 220.1,54.35 220.1,54.3 L220.1,36.15 L220.0944,35.99 L220.0944,35.99 L220,34.75 C219.95,34.1 219.95,33.35 219.95,33.15 L219.95,23.9 L219.5,23.9 C219.35,23.9 219.1,24 218.95,24.15 L218.95,35.15 C218.95,35.55 219.1,37.75 219.1,38.15 C219.15,45.15 218.85,52.1 219.5,58.6 C219.5,58.95 219.65,59.1 220,59.1 L221.064844,59.0976563 C221.690625,59.090625 222.225,59.0625 222.9,58.95 L223.7,59.1 L223.85,58.95 L224.603704,58.9240741 C225.160741,58.9003704 225.869481,58.8671852 226.26723,58.8548593 L226.5,58.85 C227.15,58.85 228.05,58.7 228.6,58.45 C229.05,58.2 229.4,57.95 229.75,57.7 C229.3,57.8 228.85,57.85 228.5,57.85 L228.207407,57.8518519 C227.955556,57.8555556 227.6,57.8666667 227.2,57.9 C226.65,57.9 226.4,57.95 226.25,57.95 L226,58.2 L224.85,58 C224.094444,58.1333333 223.53642,58.108642 222.71941,58.1015089 L221.5,58.1 L220.9,57.9 Z M227.3,29.95 L227.345229,30.8426371 C227.375657,31.5411721 227.389181,32.1420361 227.395192,32.7626221 L227.381235,47.0772318 C227.373985,49.0829616 227.363934,50.8409836 227.35,51.9 C227.8,51.75 228.15,51.4 228.3,50.8 L228.3,50.9 L228.309369,50.751346 C228.363747,49.5833792 228.385499,43.5582945 228.3942,38.7056175 L228.399399,31.5286627 C228.396694,30.3615702 228.381818,29.4318182 228.3,28 C228.2,27.45 227.5,27.2 226.7,27.15 L226.7,28.8 C227,29.1 227.25,29.45 227.3,29.95 Z M238.85,57.05 L239.1,57.3 L243.1,57.3 L243.4,57.05 L243.476071,51.7535828 C243.489876,50.5618802 243.5,49.4113636 243.5,48.6 C243.5,44.15 243.8,39.7 243.8,35.3 L243.8,22.75 C243.65,22.5 243.5,22.25 243.25,22.25 L239.25,22.1 C239.1,22.1 238.85,22.5 238.85,22.65 C238.85,31.8 238.7,40.5 238.7,49.65 L238.7,55.55 L238.85,57.05 Z M237.9,57.5 L237.7,55.65 L237.7,49.65 C237.7,45.1 237.7,40.6 237.75,36.15 L237.8068,31.386 C237.832,28.992 237.85,26.58 237.85,24.15 L237.25,24.1 C237.1,24.1 236.85,24.5 236.85,24.65 C236.85,33.8 236.7,42.5 236.7,51.65 L236.7,57.55 L236.85,59.05 L237.1,59.3 L241.1,59.3 L241.4,59.05 L241.4,58.3 L238.7,58.3 L237.9,57.5 Z M248.45,56.25 L248.6,56.65 L248.75,56.8 L252.15,56.8 C252.55,56.8 253.1,56.25 253.1,55.8 C253.1,50.9 253.1,45.85 253.25,40.9 L253.35,40.75 L253.5,40.75 C253.9,40.75 255.15,46.65 255.45,47.2 L255.55,47.5 C256.4,50.25 257.05,53.05 257.75,55.95 C257.75,56.1 257.9,56.5 258.05,56.65 C258.15,56.8 258.45,57.05 258.45,57.05 L264.2,57.05 L264.45,56.8 L264.82871,33.7583092 C264.835996,33.38696 264.843103,33.0333333 264.85,32.7 C264.85,29.7 265,26.85 265,23.85 L265,22.6 L264.897257,22.4297668 C264.770988,22.2314815 264.611111,22.05 264.3,22.05 L260.5,22.05 L260.25,22.35 L260.25,34.9 C260.25,35.45 260.1,40.35 260.1,40.9 L260.1,44.6 C260.1,44.75 259.95,44.75 259.8,44.75 C259.55,44.75 259.4,44.45 259.4,44.2 C259.4,44.0714286 259.289796,43.6489796 259.258309,43.4364431 L259.25,43.35 C259.25,43.1 259,42 258.85,41.75 C257.75,37.95 256.65,33.95 255.7,30.1 L254.45,24.95 L254.382798,24.7191008 C254.176749,23.9793951 253.630435,21.9 253.5,21.9 C252,21.9 250.95,21.8 249.45,21.8 C249.032143,21.8 248.916071,22.4897959 248.901622,22.828535 L248.9,22.9 C248.75,33.25 248.75,43.8 248.45,54.15 L248.45,56.25 Z M247.45,54.15 C247.65,47.25 247.75,40.3 247.8,33.35 C247.8,30.2 247.85,27 247.9,23.8 L247.45,23.8 C247.032143,23.8 246.916071,24.4897959 246.901622,24.828535 L246.9,24.9 C246.75,35.25 246.75,45.8 246.45,56.15 L246.45,58.25 L246.6,58.65 L246.75,58.8 L250.15,58.8 C250.55,58.8 251.1,58.25 251.1,57.8 L248.35,57.8 L247.75,57.2 L247.45,56.5 L247.45,54.15 Z M255.75,57.95 C255.75,58.0785714 255.860204,58.3908163 255.986152,58.5718659 L256.05,58.65 C256.15,58.8 256.45,59.05 256.45,59.05 L262.2,59.05 L262.45,58.8 L262.45,58 L258.1,57.95 L257.638325,57.5920346 C257.44142,57.4343195 257.246154,57.2692308 257.2,57.2 C256.95,56.85 256.8,56.35 256.75,56 L256.648926,55.7046875 C256.578125,55.49375 256.5,55.24375 256.5,55.15 L256.55,55.25 C255.95,52.7 255.3,50.1 254.55,47.65 C254.45,47.55 254.3,46.95 254.1,46.25 C254.05,47.95 254.05,49.6 254.05,51.25 C254.65,53.45 255.2,55.7 255.75,57.95 Z M258.25,24.35 L258.25,36.1 C258.5,37.1 258.8,38.1 259.1,39.1 C259.1,38.7 259.1,38.3 259.15,37.85 L259.248005,35.0458579 C259.249308,34.9844291 259.25,34.9352941 259.25,34.9 L259.25,24.05 L258.5,24.05 L258.25,24.35 Z M279.8,55.7 L279.95,55.7 C280.55,55.7 280.85,56.8 281.1,56.8 L283,56.8 C283.4,56.8 283.4,56.25 283.4,56 L283.419928,53.9497516 C283.460735,50.8586531 283.55,45.7 283.55,44.35 L283.55,39.8 L283.25,39.5 L283.1,39.5 C282.865625,39.5 281.093164,39.6318359 280.62533,39.6483154 L276.65,39.65 C276.5,39.65 276.25,39.8 276.25,40.1 L276.25,42.95 L276.5,43.25 L277.95,43.25 L278.1,43.4 C278.25,43.7 278.4,44.25 278.4,44.5 L278.4,50.7 C278.4,51.8 277.4,52.55 276.25,52.55 C275.7,52.55 274.65,52.1 274.65,51.4 L274.65,27.95 L274.725,27.78125 C274.7625,27.6875 274.8,27.575 274.8,27.5 C275.25,26.55 276.1,26.4 277.1,26.4 C277.55,26.4 278.1,26.55 278.4,26.95 C278.5,27.2 278.95,27.8 278.95,27.8 L278.95,34.1 L279.25,34.4 L283,34.4 L283,26.95 C283,26.8107143 282.741327,25.8091837 282.584275,25.3465561 L282.55,25.25 C281.5,22.1 279.1,21.7 276.1,21.7 C275.25,21.7 274.5,21.8 273.65,22.2 C270.038095,24.2011905 269.666213,27.6318027 269.650552,31.4220393 L269.65,49.8 C269.65,51 269.95,51.8 270.25,52.85 C271.1,55.7 272.8,56.8 275.7,56.8 C277.25,56.8 278.1,56.65 279.4,56 L279.8,55.7 Z M279.9,57 C279.85,57 279.85,56.95 279.8,56.9 C278.35,57.6 277.4,57.8 275.7,57.8 C272.5,57.8 270.428375,56.3895317 269.393942,53.4318224 L269.15,52.7 L268.986077,52.0834019 C268.801235,51.3771605 268.65,50.6944444 268.65,49.8 L268.65,31.7 C268.65,30.45 268.65,29.15 268.85,28 C268.15,29.8 268,31.9 268,34 L267.7,51.9 C267.65,53.05 267.95,53.9 268.25,54.9 C268.976562,57.6609375 270.594678,59.1080078 273.331633,59.1957535 L273.6,59.2 C275.2,59.25 276,58.9 277.35,58.2 L277.75,57.9 L277.9,57.95 C278.45,57.95 278.75,59.05 279.05,59.05 L280.9,59.1 C281.3,59.1 281.3,58.55 281.3,58.25 L281.3,57.8 L281.1,57.8 C279.9,57.8 280.2,57.4 279.9,57 Z M276.95,29.1 L277.052705,29.2610068 C277.232231,29.5318182 277.5,29.9 277.5,29.9 L277.4,36.6 L277.7,36.9 L281.25,36.95 L281.25,35.4 L278.85,35.4 L277.95,34.5 L278.05,28.1 L277.9028,27.9608 C277.778,27.836 277.61,27.65 277.55,27.5 C277.47,27.42 277.358,27.404 277.214,27.4008 L276.678906,27.3984375 C276.2875,27.403125 275.9875,27.45 275.8,27.75 L275.70625,28.075 C275.675,28.175 275.65,28.25 275.65,28.25 L275.65,28.45 C276.1,28.5 276.65,28.7 276.95,29.1 Z M275.65,43.85 L275.65,45.45 L276.1,45.45 L276.25,45.6 C276.4,45.9 276.55,46.45 276.55,46.75 L276.4,51.55 C276.95,51.5 277.4,51.15 277.4,50.7 L277.4,44.55 C277.4,44.5 277.3,44.4 277.3,44.25 L275.9,44.25 L275.65,43.85 Z M300.15,56.3 L300.55,56.55 C301.75,57.1 302.85,57.25 304.05,57.25 L304.533752,57.2443237 C306.932617,57.1855469 309.015625,56.640625 310,54.25 C310.7,52.65 311.1,51.4 311.1,49.65 L311.1,44.65 L310.85,44.5 L309.88623,44.4369021 C309.538581,44.416955 309.176471,44.4 308.95,44.4 L307.05,44.4 L306.9,44.5 L306.9,51.3 L306.620689,51.7650463 C306.518403,51.9392361 306.4125,52.125 306.35,52.25 C305.95,52.75 305.15,53.15 304.5,53.15 C303,53.15 302.45,52.1 302.3,50.75 L302.2,30.75 L302.2,30.75 L302.19985,28.734598 C302.221488,27.3227273 302.440909,25.85 304.2,25.85 C305.85,25.85 305.95,27.35 305.95,28.55 L305.95,33.25 L306.45,33.75 L308.75,33.75 C309.15,33.75 310.1,33.9 310.1,33.2 C310.1,32.95 309.95,32.7 309.95,32.25 C309.95,32 309.95,31.85 310.2,31.6 C310.15,29.6 310.3,26.8 309.8,25.35 C309.7,25.05 308.95,23.85 308.8,23.7 C308.65,23.45 307.6,22.5 307.3,22.2 C306.35,21.55 305.3,21.4 304.2,21.4 C301.9,21.4 301.35,21.8 299.75,23.15 L299.6,23.3 C298.25,25.2 297.6,27.5 297.6,29.8 L297.6,50.2 C297.6,50.2 297.7,51 297.7,51.3 C298,53.45 298.55,54.8 300.15,56.3 Z M299.45,57.05 C297.65,55.4 297.05,53.9 296.7,51.45 L296.693628,51.2610605 C296.671598,50.8727811 296.6,50.3 296.6,50.3 L296.6,29.8 C296.6,28.5 296.8,27.15 297.2,25.9 C296.1,27.7 295.6,29.75 295.6,31.8 L295.6,52.2 C295.6,52.2 295.7,53 295.7,53.3 C296,55.45 296.55,56.8 298.15,58.3 L298.55,58.55 C299.75,59.1 300.85,59.25 302.05,59.25 C303.9,59.25 305.6,59 306.8,57.95 C305.95,58.15 305,58.25 304.05,58.25 C302.7,58.25 301.45,58.05 300.1,57.45 L299.7,57.2 L299.45,57.05 Z M303.95,30.55 L303.95,35.25 C303.95,35.6 304.1,35.75 304.45,35.75 L306.75,35.75 C307.15,35.75 308.1,35.9 308.1,35.2 C308.1,35.1 308.05,34.95 308,34.75 L306.45,34.75 C305.4,34.75 304.95,34.3 304.95,33.25 L304.95,28.55 C304.95,27.8 304.9,26.85 304.2,26.85 C303.55,26.85 303.3,27.45 303.25,28.15 C303.9,28.65 303.95,29.7 303.95,30.55 Z M304.9,46.5 L304.9,52.1 C305.1,52 305.3,51.95 305.45,51.8 L305.543989,51.6207363 C305.699174,51.3347107 305.9,51 305.9,51 L305.9,46.4 L305.05,46.4 L304.9,46.5 Z M318.15,56.65 C318.55,56.9 319.05,56.8 319.45,57.05 C319.6,57.05 320,57.45 320.15,57.45 L322.8,57.45 C323.15,57.45 324.1,57.2 324.5,56.9 C326.75,55.45 328.2,52.65 328.45,50.05 C328.6,49.4 328.75,47.25 328.75,47.1 L328.760971,46.0481745 C328.786938,44.0791955 328.85,40.1191176 328.85,38.65 L328.85,29.5 L328.758491,28.9529519 C328.334949,26.5372449 327.535714,23.5857143 325.4,22.1 C324.75,21.6 323.55,21.6 322.9,21.45 C322.65,21.45 321.6,21.35 321.45,21.35 L320.95,21.45 C320.7,21.45 320,21.6 319.6,21.7 C317.85,22.4 316.7,24.1 316.15,25.85 L316.05,26.35 C316.05,26.4875 315.503819,27.38125 315.412789,27.6447917 L315.264978,28.258237 C315.195289,28.5660296 315.121244,28.9311704 315.103822,29.160563 L315.1,29.25 C315.1,29.385 315.019,30.0465 315.0028,30.3597 L315,30.45 C315,30.85 314.85,32.05 314.85,32.05 L314.85,48.05 C314.85,48.15 315,49.1 315,49.4 L315.122554,50.3423823 C315.355125,52.0443213 315.705263,53.8526316 316.8,55.2 L317.30625,55.71875 C317.575,56 317.875,56.325 318,56.5 L318.15,56.65 Z M319.75,50.05 L319.751684,34.0953801 C319.764793,32.6411243 319.85,28.5192308 319.85,27.55 C320,26.65 320.95,26.1 321.85,26.1 L322.019531,26.1023437 C322.2375,26.109375 322.575,26.1375 322.8,26.25 L323.55,27 L323.7,27.3 C323.7,27.4 323.95,28.2 323.95,28.35 L323.918001,32.7446688 C323.880622,36.6907289 323.821722,41.9998011 323.804732,44.6545867 L323.7972,46.01875 C323.7828,46.77275 323.7172,48.79075 323.7028,49.64075 L323.697249,50.1802843 C323.671429,51.3997449 323.439286,52.65 322,52.65 L321.45,52.65 L320.877583,52.3586937 C320.697337,52.2713018 320.515385,52.1884615 320.4,52.15 C320.15,52 319.85,51.6 319.85,51.35 L319.8284,51.0503 C319.799,50.7185 319.75,50.225 319.75,50.05 Z M317.2,57.1 C316.95,56.75 315.8,55.6 315.8,55.6 C314.55,54.05 314.3,51.65 314,49.55 C314,49.35 313.95,48.95 313.9,48.6 L313.95,48.7 C313.875,48.4 313.85625,48.2125 313.851562,48.1164062 L313.85,31.95 C313.85,31.95 313.980667,30.9046667 313.998089,30.5213778 L314.002637,30.178418 C314.007031,29.9835937 314.01875,29.7375 314.05,29.55 C314.05,29.5 314.1,29.25 314.1,29.25 C314.1,29.025 314.194922,28.5152344 314.277979,28.1122559 L314.4,27.55 C314.45,27.25 314.6,26.95 314.8,26.6 C314.9,26.4 315.05,26.35 315.05,26.35 L315.15,25.8 C314.7,26.45 314.35,27.15 314.15,27.85 L314.05,28.35 C314.05,28.4875 313.503819,29.38125 313.412789,29.6447917 L313.264978,30.258237 C313.195289,30.5660296 313.121244,30.9311704 313.103822,31.160563 L313.1,31.25 C313.1,31.385 313.019,32.0465 313.0028,32.3597 L313,32.45 C313,32.85 312.85,34.05 312.85,34.05 L312.85,50.05 C312.85,50.15 313,51.1 313,51.4 L313.122554,52.3423823 C313.355125,54.0443213 313.705263,55.8526316 314.8,57.2 L315.30625,57.71875 C315.575,58 315.875,58.325 316,58.5 L316.15,58.65 C316.55,58.9 317.05,58.8 317.45,59.05 C317.6,59.05 318,59.45 318.15,59.45 L320.8,59.45 C321.15,59.45 322.1,59.2 322.5,58.9 C322.7,58.75 322.95,58.6 323.15,58.4 C323.0375,58.4375 322.953125,58.446875 322.875781,58.4492188 L320.15,58.45 C319.55,58.45 319.35,58.25 319.25,58.1 L319.196,58.0676 C319.184,58.058 319.18,58.05 319.2,58.05 L318.55,57.8 L318.6,57.85 L318.31335,57.8077 C318.103,57.7685 317.9,57.695 317.55,57.45 L317.2,57.1 Z M321.55,29 L321.7,29.3 C321.7,29.4 321.95,30.2 321.95,30.35 L321.918001,34.7446688 C321.880622,38.6907289 321.821722,43.9998011 321.804732,46.6545867 L321.8,47.8 C321.8,48.25 321.7,50.75 321.7,51.65 L322,51.65 C322.541667,51.65 322.666667,51.025 322.693287,50.3247685 L322.709329,48.7635569 C322.716327,48.3826531 322.728571,47.9571429 322.75,47.55 C322.75,47 322.8,46 322.8,45.8 L322.814815,40.7111111 C322.820741,39.7955556 322.829037,38.8231111 322.840652,37.8392889 L322.935185,30.537037 C322.944444,29.6222222 322.95,28.8833333 322.95,28.45 C322.9,28.45 322.85,28.15 322.8,27.95 L322.85,28 C322.8,27.9 322.75,27.8 322.75,27.7 C322.7,27.65 322.65,27.55 322.65,27.5 L322.3,27.15 C322.15,27.1 321.95,27.1 321.85,27.1 C321.5,27.1 321,27.35 320.85,27.6 L320.85,28.3 L321.55,29 Z M333.45,56.75 L333.8,57.05 L338.25,57.05 L338.65,56.75 L338.679499,53.0388188 C338.685172,52.6159729 338.691935,52.1677419 338.7,51.7 L338.2,51.4 L333.45,51.4 L333.3,51.95 L333.3,54.95 L333.45,56.75 Z M332.3,55.05 L332.5,57.2 L333.4,58.05 L336.65,58.05 L336.65,58.75 L336.25,59.05 L331.8,59.05 L331.45,58.75 L331.3,56.95 L331.3,53.95 L331.45,53.4 L332.3,53.4 L332.3,55.05 Z" id="BLUEGRASSTRADINGCO."></path>
                <path d="M167.761166,9.09942108 C167.968156,9.22706281 168.040602,9.38661258 167.978505,9.57807517 C167.925279,9.74218597 167.803621,9.80470378 167.613528,9.76562961 L167.512779,9.73762653 C165.77406,9.22705962 164.076764,8.83350352 162.420842,8.55694644 C160.764919,8.28038936 159.026226,8.24847941 157.204711,8.46121562 C156.58374,8.54631011 155.973127,8.64203997 155.372855,8.74840808 C154.772583,8.85477619 154.18267,8.97177935 153.603097,9.09942108 C153.478902,9.14196832 153.271915,9.18451493 152.982129,9.22706217 C152.692342,9.26960941 152.40256,9.29088272 152.112773,9.29088272 C151.822987,9.29088272 151.543554,9.26960941 151.274467,9.22706217 C151.005379,9.18451493 150.82944,9.07814841 150.746644,8.90795944 C150.498256,8.61012874 150.415461,8.2484826 150.498257,7.82301017 C150.498257,7.44008498 150.311968,7.29117186 149.939386,7.37626635 C149.145923,7.55354653 148.381218,7.81946325 147.645255,8.17402243 L147.207127,8.39739508 C146.337767,8.86541475 145.427023,9.2483342 144.474868,9.5461649 C143.56411,9.88654284 142.75686,10.035456 142.053093,9.99290872 C141.390723,9.95036147 140.738714,9.7269918 140.097044,9.32279299 C139.455373,8.91859418 139.093146,8.33357836 139.01035,7.56772799 C138.968952,7.09970831 139.051746,6.66360561 139.258737,6.2594068 C139.465727,5.85520799 139.734811,5.49356185 140.065995,5.17445753 C140.39718,4.85535321 140.769757,4.56816362 141.183737,4.31288017 C141.597718,4.05759671 141.990994,3.86613699 142.363577,3.73849526 C143.191538,3.44066455 144.029836,3.25984148 144.878497,3.19602062 C145.727157,3.13219975 146.565456,3.0790165 147.393417,3.03646926 C148.842349,2.95137477 150.30161,3.01519468 151.771241,3.22793089 C153.240873,3.44066711 154.700133,3.75976664 156.149065,4.18523907 C157.76359,4.65325875 159.37809,5.18509131 160.992615,5.78075271 C162.338053,6.27713721 163.640351,6.84738115 164.899537,7.49149669 L165.649875,7.88683071 C165.981059,8.05701969 166.332938,8.24847941 166.70552,8.46121562 C167.078103,8.67395184 167.429981,8.88668486 167.761166,9.09942108 Z M164.258427,5.50424905 C163.674157,5.22927133 163.269664,4.81681093 163.044944,4.26685547 C163,4.07044281 162.988764,3.88385359 163.011236,3.70708219 C163.02809,3.57450364 163.076545,3.45849866 163.156601,3.35906537 L163.247191,3.26515591 C163.337079,3.14730832 163.483145,3.06874443 163.685393,3.0294619 C163.887641,2.99017937 164.101122,2.99017937 164.325843,3.0294619 C164.925096,3.09929751 165.400055,3.33983891 165.750728,3.7510923 L167.898876,6.44702511 C168.033708,6.60415524 168.033708,6.75146252 167.898876,6.88895139 C167.786516,7.00352544 167.642946,7.02944089 167.468165,6.96669793 L164.258427,5.50424905 Z M197.634861,3.73849526 C198.421377,4.03632596 199.197532,4.51497526 199.963349,5.17445753 C200.729167,5.8339398 201.070675,6.63168864 200.987884,7.56772799 C200.905093,8.33357836 200.542887,8.91859418 199.901256,9.32279299 C199.259625,9.7269918 198.607655,9.95036147 197.945327,9.99290872 C197.241602,10.035456 196.434401,9.88654284 195.523699,9.5461649 C194.762021,9.30790034 194.026845,9.01517898 193.318156,8.66799495 L192.791607,8.39739508 C191.9223,7.9293754 191.011612,7.58900257 190.059514,7.37626635 C189.686954,7.29117186 189.500677,7.44008498 189.500677,7.82301017 C189.583468,8.20593536 189.521376,8.5675815 189.314398,8.90795944 C189.190211,9.07814841 189.003934,9.18451493 188.755561,9.22706217 C188.507187,9.26960941 188.227772,9.29088272 187.917305,9.29088272 C187.606838,9.29088272 187.317074,9.26960941 187.048003,9.22706217 L186.683206,9.16324162 C186.574544,9.14196816 186.478817,9.1206947 186.396026,9.09942108 C185.816489,8.97177935 185.226611,8.85477619 184.626375,8.74840808 C184.02614,8.64203997 183.415565,8.54631011 182.794632,8.46121562 C180.973227,8.24847941 179.23464,8.28038936 177.578819,8.55694644 C176.198967,8.78741068 174.790386,9.09912422 173.353047,9.49209392 L172.487192,9.73762653 C172.238818,9.82272102 172.083587,9.76953776 172.021494,9.57807517 C171.959401,9.38661258 172.031842,9.22706281 172.23882,9.09942108 C172.569984,8.88668486 172.921841,8.67395184 173.294401,8.46121562 C173.666961,8.24847941 174.018818,8.05701969 174.349982,7.88683071 C175.881617,7.0784331 177.454624,6.37641412 179.069051,5.78075271 C180.683477,5.18509131 182.277182,4.65325875 183.850213,4.18523907 C185.299057,3.75976664 186.758228,3.44066711 188.22777,3.22793089 C189.697312,3.01519468 191.156483,2.95137477 192.605327,3.03646926 C193.474634,3.0790165 194.333579,3.13219975 195.182187,3.19602062 C196.030796,3.25984148 196.848346,3.44066455 197.634861,3.73849526 Z M174.718593,5.50424912 L171.636516,6.91841314 C171.413176,7.03626073 171.234507,7.02644025 171.100503,6.88895139 C170.966499,6.75146253 170.966499,6.60415526 171.100503,6.44702513 L173.110553,3.9133146 C173.467897,3.4026417 173.981571,3.10802714 174.651591,3.02946208 C175.142939,2.95089702 175.522611,3.0294609 175.790619,3.26515609 C176.013959,3.5401338 176.058627,3.8740303 175.924623,4.2668556 C175.701283,4.81681103 175.299277,5.22927141 174.718593,5.50424912 Z M171.611765,0.817518248 C171.82353,1.16788321 171.947059,1.54744321 171.982353,1.95620438 C172.017647,2.36496555 172,2.78345285 171.929412,3.21167883 L170.976471,7.53284672 C170.905882,7.8442838 170.755883,8 170.526471,8 C170.297058,8 170.147059,7.8442838 170.076471,7.53284672 L169.070588,3.21167883 C169,2.78345285 168.982353,2.36496555 169.017647,1.95620438 C169.052941,1.54744321 169.17647,1.16788321 169.388235,0.817518248 C169.705884,0.272503358 170.076469,0 170.5,0 C170.923531,0 171.294116,0.272503358 171.611765,0.817518248 Z" id="B"></path>
            </g>
            <path d="M61.1630859,77.0566406 L58.1455078,77.0566406 L58.1455078,80.0800781 L61.6611328,80.0800781 L61.6611328,81 L57.0732422,81 L57.0732422,72.46875 L61.6025391,72.46875 L61.6025391,73.3945312 L58.1455078,73.3945312 L58.1455078,76.1367188 L61.1630859,76.1367188 L61.1630859,77.0566406 Z M66.7587891,78.84375 C66.7587891,78.4179666 66.6435558,78.091798 66.4130859,77.8652344 C66.2114248,77.6669912 65.8677083,77.4732367 65.3819283,77.2839663 L65.1650391,77.203125 C64.5634736,76.9882802 64.1035172,76.7626965 63.7851562,76.5263672 C63.4667953,76.2900379 63.2285164,76.0205093 63.0703125,75.7177734 C62.9121086,75.4150375 62.8330078,75.0683613 62.8330078,74.6777344 C62.8330078,74.0019497 63.0585915,73.4453147 63.5097656,73.0078125 C63.9609398,72.5703103 64.5517542,72.3515625 65.2822266,72.3515625 C65.7822291,72.3515625 66.2275371,72.4638661 66.6181641,72.6884766 C67.008791,72.9130871 67.3095693,73.2246074 67.5205078,73.6230469 C67.7314464,74.0214864 67.8369141,74.458982 67.8369141,74.9355469 L66.7587891,74.9355469 C66.7587891,74.4082005 66.6318372,74.0000014 66.3779297,73.7109375 C66.1240222,73.4218736 65.7587914,73.2773438 65.2822266,73.2773438 C64.8486306,73.2773438 64.5126965,73.3984363 64.2744141,73.640625 C64.0361316,73.8828137 63.9169922,74.2226541 63.9169922,74.6601562 C63.9169922,75.019533 64.0458971,75.3203113 64.3037109,75.5625 C64.5615247,75.8046887 64.9599582,76.0214834 65.4990234,76.2128906 C66.3388714,76.4902358 66.9394513,76.8320292 67.3007812,77.2382812 C67.6621112,77.6445333 67.8427734,78.175778 67.8427734,78.8320312 C67.8427734,79.523441 67.6181663,80.0771464 67.1689453,80.4931641 C66.7197243,80.9091818 66.1084023,81.1171875 65.3349609,81.1171875 C64.8388647,81.1171875 64.3808615,81.0087901 63.9609375,80.7919922 C63.5410135,80.5751942 63.2109387,80.2705098 62.9707031,79.8779297 C62.7304675,79.4853496 62.6103516,79.0351588 62.6103516,78.5273438 L63.6884766,78.5273438 C63.6884766,79.0546901 63.835936,79.4648423 64.1308594,79.7578125 C64.4257827,80.0507827 64.8271459,80.1972656 65.3349609,80.1972656 C65.8076196,80.1972656 66.1630847,80.0761731 66.4013672,79.8339844 C66.6396496,79.5917957 66.7587891,79.2617208 66.7587891,78.84375 Z M74.2353516,73.3945312 L71.9912109,73.3945312 L71.9912109,81 L70.9189453,81 L70.9189453,73.3945312 L68.6806641,73.3945312 L68.6806641,72.46875 L74.2353516,72.46875 L74.2353516,73.3945312 Z M79.0107422,78.7734375 L76.1279297,78.7734375 L75.4658203,81 L74.3642578,81 L77.1123047,72.46875 L78.0322266,72.46875 L80.7861328,81 L79.6845703,81 L79.0107422,78.7734375 Z M76.4091797,77.8476562 L78.7353516,77.8476562 L77.5693359,73.96875 L76.4091797,77.8476562 Z M81.9462891,81 L81.9462891,72.46875 L84.3779297,72.46875 C85.1552773,72.46875 85.7402324,72.6582012 86.1328125,73.0371094 C86.5253926,73.4160175 86.7216797,73.9843712 86.7216797,74.7421875 C86.7216797,75.140627 86.6220713,75.492186 86.4228516,75.796875 C86.2236318,76.101564 85.9541033,76.3378898 85.6142578,76.5058594 C86.0048848,76.6230475 86.314452,76.8632794 86.5429688,77.2265625 C86.7714855,77.5898456 86.8857422,78.0273412 86.8857422,78.5390625 C86.8857422,79.3046913 86.6757833,79.9062478 86.2558594,80.34375 C85.8359354,80.7812522 85.2373086,81 84.4599609,81 L81.9462891,81 Z M83.0185547,77.0097656 L83.0185547,80.0800781 L84.4833984,80.0800781 C84.8896505,80.0800781 85.2119129,79.9462904 85.4501953,79.6787109 C85.6884778,79.4111315 85.8076172,79.0351587 85.8076172,78.5507812 C85.8076172,77.5234324 85.3740278,77.0097656 84.5068359,77.0097656 L83.0185547,77.0097656 Z M83.0185547,76.1074219 L84.3955078,76.1074219 C84.7666034,76.1074219 85.0664051,75.9824231 85.2949219,75.7324219 C85.5234386,75.4824206 85.6376953,75.1503927 85.6376953,74.7363281 C85.6376953,74.2675758 85.5341807,73.9267589 85.3271484,73.7138672 C85.1201162,73.5009755 84.8037131,73.3945312 84.3779297,73.3945312 L83.0185547,73.3945312 L83.0185547,76.1074219 Z M89.5693359,80.0800781 L92.9150391,80.0800781 L92.9150391,81 L88.4912109,81 L88.4912109,72.46875 L89.5693359,72.46875 L89.5693359,80.0800781 Z M95.3115234,81 L94.2392578,81 L94.2392578,72.46875 L95.3115234,72.46875 L95.3115234,81 Z M100.918945,78.84375 C100.918945,78.4179666 100.803712,78.091798 100.573242,77.8652344 C100.371581,77.6669912 100.027865,77.4732367 99.5420846,77.2839663 L99.3251953,77.203125 C98.7236298,76.9882802 98.2636735,76.7626965 97.9453125,76.5263672 C97.6269515,76.2900379 97.3886727,76.0205093 97.2304688,75.7177734 C97.0722648,75.4150375 96.9931641,75.0683613 96.9931641,74.6777344 C96.9931641,74.0019497 97.2187477,73.4453147 97.6699219,73.0078125 C98.121096,72.5703103 98.7119104,72.3515625 99.4423828,72.3515625 C99.9423853,72.3515625 100.387693,72.4638661 100.77832,72.6884766 C101.168947,72.9130871 101.469726,73.2246074 101.680664,73.6230469 C101.891603,74.0214864 101.99707,74.458982 101.99707,74.9355469 L100.918945,74.9355469 C100.918945,74.4082005 100.791993,74.0000014 100.538086,73.7109375 C100.284178,73.4218736 99.9189477,73.2773438 99.4423828,73.2773438 C99.0087869,73.2773438 98.6728528,73.3984363 98.4345703,73.640625 C98.1962879,73.8828137 98.0771484,74.2226541 98.0771484,74.6601562 C98.0771484,75.019533 98.2060534,75.3203113 98.4638672,75.5625 C98.721681,75.8046887 99.1201145,76.0214834 99.6591797,76.2128906 C100.499028,76.4902358 101.099608,76.8320292 101.460938,77.2382812 C101.822267,77.6445333 102.00293,78.175778 102.00293,78.8320312 C102.00293,79.523441 101.778323,80.0771464 101.329102,80.4931641 C100.879881,80.9091818 100.268559,81.1171875 99.4951172,81.1171875 C98.999021,81.1171875 98.5410177,81.0087901 98.1210938,80.7919922 C97.7011698,80.5751942 97.371095,80.2705098 97.1308594,79.8779297 C96.8906238,79.4853496 96.7705078,79.0351588 96.7705078,78.5273438 L97.8486328,78.5273438 C97.8486328,79.0546901 97.9960923,79.4648423 98.2910156,79.7578125 C98.585939,80.0507827 98.9873021,80.1972656 99.4951172,80.1972656 C99.9677758,80.1972656 100.323241,80.0761731 100.561523,79.8339844 C100.799806,79.5917957 100.918945,79.2617208 100.918945,78.84375 Z M108.993164,81 L107.915039,81 L107.915039,77.0566406 L104.481445,77.0566406 L104.481445,81 L103.40918,81 L103.40918,72.46875 L104.481445,72.46875 L104.481445,76.1367188 L107.915039,76.1367188 L107.915039,72.46875 L108.993164,72.46875 L108.993164,81 Z M114.94043,77.0566406 L111.922852,77.0566406 L111.922852,80.0800781 L115.438477,80.0800781 L115.438477,81 L110.850586,81 L110.850586,72.46875 L115.379883,72.46875 L115.379883,73.3945312 L111.922852,73.3945312 L111.922852,76.1367188 L114.94043,76.1367188 L114.94043,77.0566406 Z M116.80957,81 L116.80957,72.46875 L118.842773,72.46875 C119.838872,72.46875 120.612302,72.7802703 121.163086,73.4033203 C121.71387,74.0263703 121.989258,74.9023381 121.989258,76.03125 L121.989258,77.4609375 C121.989258,78.5898494 121.709964,79.461911 121.151367,80.0771484 C120.592771,80.6923859 119.782232,81 118.719727,81 L116.80957,81 Z M117.881836,73.3945312 L117.881836,80.0800781 L118.743164,80.0800781 C119.497074,80.0800781 120.04785,79.86426 120.395508,79.4326172 C120.743166,79.0009744 120.920898,78.3613324 120.928711,77.5136719 L120.928711,76.0019531 C120.928711,75.1035111 120.755861,74.444338 120.410156,74.0244141 C120.064451,73.6044901 119.541996,73.3945312 118.842773,73.3945312 L117.881836,73.3945312 Z M130.942383,81 L126.172852,81 L126.172852,80.2207031 L128.604492,76.9980469 C128.971682,76.5019506 129.226562,76.0947282 129.369141,75.7763672 C129.511719,75.4580062 129.583008,75.1210955 129.583008,74.765625 C129.583008,74.3124977 129.47754,73.9453139 129.266602,73.6640625 C129.055663,73.3828111 128.778322,73.2421875 128.43457,73.2421875 C128.000974,73.2421875 127.666017,73.3916001 127.429688,73.6904297 C127.193358,73.9892593 127.075195,74.4199191 127.075195,74.9824219 L126.038086,74.9824219 C126.038086,74.1972617 126.252928,73.5625024 126.682617,73.078125 C127.112307,72.5937476 127.696285,72.3515625 128.43457,72.3515625 C129.114261,72.3515625 129.649412,72.5595682 130.040039,72.9755859 C130.430666,73.3916036 130.625977,73.945309 130.625977,74.6367188 C130.625977,75.480473 130.186528,76.4785099 129.307617,77.6308594 L127.40918,80.1152344 L130.942383,80.1152344 L130.942383,81 Z M136.655273,77.3613281 C136.655273,78.6191469 136.471682,79.5595672 136.104492,80.1826172 C135.737303,80.8056672 135.161137,81.1171875 134.375977,81.1171875 C133.614254,81.1171875 133.0459,80.8183624 132.670898,80.2207031 C132.295897,79.6230439 132.100586,78.7246154 132.084961,77.5253906 L132.084961,76.0605469 C132.084961,74.8144469 132.269529,73.8847687 132.638672,73.2714844 C133.007814,72.6582001 133.583004,72.3515625 134.364258,72.3515625 C135.133793,72.3515625 135.703123,72.6425752 136.072266,73.2246094 C136.441408,73.8066435 136.635742,74.6874941 136.655273,75.8671875 L136.655273,77.3613281 Z M135.618164,75.8789062 C135.618164,74.976558 135.518556,74.3115256 135.319336,73.8837891 C135.120116,73.4560525 134.80176,73.2421875 134.364258,73.2421875 C133.938474,73.2421875 133.625978,73.4521463 133.426758,73.8720703 C133.227538,74.2919943 133.124023,74.925777 133.116211,75.7734375 L133.116211,77.53125 C133.116211,78.429692 133.219726,79.1044899 133.426758,79.5556641 C133.63379,80.0068382 133.950193,80.2324219 134.375977,80.2324219 C134.797854,80.2324219 135.108397,80.0195334 135.307617,79.59375 C135.506837,79.1679666 135.610352,78.5175825 135.618164,77.6425781 L135.618164,75.8789062 Z M142.790039,81 L138.020508,81 L138.020508,80.2207031 L140.452148,76.9980469 C140.819338,76.5019506 141.074218,76.0947282 141.216797,75.7763672 C141.359376,75.4580062 141.430664,75.1210955 141.430664,74.765625 C141.430664,74.3124977 141.325196,73.9453139 141.114258,73.6640625 C140.903319,73.3828111 140.625978,73.2421875 140.282227,73.2421875 C139.848631,73.2421875 139.513673,73.3916001 139.277344,73.6904297 C139.041014,73.9892593 138.922852,74.4199191 138.922852,74.9824219 L137.885742,74.9824219 C137.885742,74.1972617 138.100584,73.5625024 138.530273,73.078125 C138.959963,72.5937476 139.543942,72.3515625 140.282227,72.3515625 C140.961917,72.3515625 141.497068,72.5595682 141.887695,72.9755859 C142.278322,73.3916036 142.473633,73.945309 142.473633,74.6367188 C142.473633,75.480473 142.034184,76.4785099 141.155273,77.6308594 L139.256836,80.1152344 L142.790039,80.1152344 L142.790039,81 Z M147.032227,81 L145.989258,81 L145.989258,73.7753906 L144.196289,74.578125 L144.196289,73.59375 L146.868164,72.4277344 L147.032227,72.4277344 L147.032227,81 Z M149.967773,82.6992188 L149.352539,82.2773438 C149.719728,81.7656224 149.911133,81.238284 149.926758,80.6953125 L149.926758,79.7167969 L150.987305,79.7167969 L150.987305,80.5664062 C150.987305,80.9609395 150.890626,81.3554668 150.697266,81.75 C150.503905,82.1445332 150.260744,82.4609363 149.967773,82.6992188 Z M159.161133,77.2324219 L156.27832,77.2324219 L156.27832,81 L155.206055,81 L155.206055,72.46875 L159.647461,72.46875 L159.647461,73.3945312 L156.27832,73.3945312 L156.27832,76.3125 L159.161133,76.3125 L159.161133,77.2324219 Z M163.549805,77.5488281 L162.049805,77.5488281 L162.049805,81 L160.97168,81 L160.97168,72.46875 L163.362305,72.46875 C164.198246,72.46875 164.831053,72.6865213 165.260742,73.1220703 C165.690432,73.5576194 165.905273,74.1953083 165.905273,75.0351562 C165.905273,75.5625026 165.789064,76.022459 165.556641,76.4150391 C165.324218,76.8076192 164.995119,77.1035146 164.569336,77.3027344 L166.22168,80.9296875 L166.22168,81 L165.067383,81 L163.549805,77.5488281 Z M162.049805,76.6289062 L163.350586,76.6289062 C163.799807,76.6289062 164.158202,76.4843764 164.425781,76.1953125 C164.693361,75.9062486 164.827148,75.5195337 164.827148,75.0351562 C164.827148,73.9414008 164.33106,73.3945312 163.338867,73.3945312 L162.049805,73.3945312 L162.049805,76.6289062 Z M168.459961,81 L167.387695,81 L167.387695,72.46875 L168.459961,72.46875 L168.459961,81 Z M174.430664,77.0566406 L171.413086,77.0566406 L171.413086,80.0800781 L174.928711,80.0800781 L174.928711,81 L170.34082,81 L170.34082,72.46875 L174.870117,72.46875 L174.870117,73.3945312 L171.413086,73.3945312 L171.413086,76.1367188 L174.430664,76.1367188 L174.430664,77.0566406 Z M181.87207,81 L180.793945,81 L177.37793,74.4257812 L177.37793,81 L176.299805,81 L176.299805,72.46875 L177.37793,72.46875 L180.805664,79.0722656 L180.805664,72.46875 L181.87207,72.46875 L181.87207,81 Z M183.729492,81 L183.729492,72.46875 L185.762695,72.46875 C186.758794,72.46875 187.532224,72.7802703 188.083008,73.4033203 C188.633792,74.0263703 188.90918,74.9023381 188.90918,76.03125 L188.90918,77.4609375 C188.90918,78.5898494 188.629886,79.461911 188.071289,80.0771484 C187.512693,80.6923859 186.702154,81 185.639648,81 L183.729492,81 Z M184.801758,73.3945312 L184.801758,80.0800781 L185.663086,80.0800781 C186.416996,80.0800781 186.967772,79.86426 187.31543,79.4326172 C187.663088,79.0009744 187.84082,78.3613324 187.848633,77.5136719 L187.848633,76.0019531 C187.848633,75.1035111 187.675783,74.444338 187.330078,74.0244141 C186.984373,73.6044901 186.461918,73.3945312 185.762695,73.3945312 L184.801758,73.3945312 Z M194.305664,78.84375 C194.305664,78.4179666 194.190431,78.091798 193.959961,77.8652344 C193.7583,77.6669912 193.414583,77.4732367 192.928803,77.2839663 L192.711914,77.203125 C192.110349,76.9882802 191.650392,76.7626965 191.332031,76.5263672 C191.01367,76.2900379 190.775391,76.0205093 190.617188,75.7177734 C190.458984,75.4150375 190.379883,75.0683613 190.379883,74.6777344 C190.379883,74.0019497 190.605466,73.4453147 191.056641,73.0078125 C191.507815,72.5703103 192.098629,72.3515625 192.829102,72.3515625 C193.329104,72.3515625 193.774412,72.4638661 194.165039,72.6884766 C194.555666,72.9130871 194.856444,73.2246074 195.067383,73.6230469 C195.278321,74.0214864 195.383789,74.458982 195.383789,74.9355469 L194.305664,74.9355469 C194.305664,74.4082005 194.178712,74.0000014 193.924805,73.7109375 C193.670897,73.4218736 193.305666,73.2773438 192.829102,73.2773438 C192.395506,73.2773438 192.059572,73.3984363 191.821289,73.640625 C191.583007,73.8828137 191.463867,74.2226541 191.463867,74.6601562 C191.463867,75.019533 191.592772,75.3203113 191.850586,75.5625 C192.1084,75.8046887 192.506833,76.0214834 193.045898,76.2128906 C193.885746,76.4902358 194.486326,76.8320292 194.847656,77.2382812 C195.208986,77.6445333 195.389648,78.175778 195.389648,78.8320312 C195.389648,79.523441 195.165041,80.0771464 194.71582,80.4931641 C194.266599,80.9091818 193.655277,81.1171875 192.881836,81.1171875 C192.38574,81.1171875 191.927736,81.0087901 191.507812,80.7919922 C191.087889,80.5751942 190.757814,80.2705098 190.517578,79.8779297 C190.277343,79.4853496 190.157227,79.0351588 190.157227,78.5273438 L191.235352,78.5273438 C191.235352,79.0546901 191.382811,79.4648423 191.677734,79.7578125 C191.972658,80.0507827 192.374021,80.1972656 192.881836,80.1972656 C193.354495,80.1972656 193.70996,80.0761731 193.948242,79.8339844 C194.186525,79.5917957 194.305664,79.2617208 194.305664,78.84375 Z M199.233398,79.3535156 L201.18457,72.46875 L202.362305,72.46875 L199.708008,81 L198.770508,81 L196.12207,72.46875 L197.293945,72.46875 L199.233398,79.3535156 Z M204.635742,81 L203.563477,81 L203.563477,72.46875 L204.635742,72.46875 L204.635742,81 Z M207.594727,80.0800781 L210.94043,80.0800781 L210.94043,81 L206.516602,81 L206.516602,72.46875 L207.594727,72.46875 L207.594727,80.0800781 Z M213.295898,80.0800781 L216.641602,80.0800781 L216.641602,81 L212.217773,81 L212.217773,72.46875 L213.295898,72.46875 L213.295898,80.0800781 Z M222.008789,77.0566406 L218.991211,77.0566406 L218.991211,80.0800781 L222.506836,80.0800781 L222.506836,81 L217.918945,81 L217.918945,72.46875 L222.448242,72.46875 L222.448242,73.3945312 L218.991211,73.3945312 L218.991211,76.1367188 L222.008789,76.1367188 L222.008789,77.0566406 Z M231.37793,73.3945312 L229.133789,73.3945312 L229.133789,81 L228.061523,81 L228.061523,73.3945312 L225.823242,73.3945312 L225.823242,72.46875 L231.37793,72.46875 L231.37793,73.3945312 Z M236.727539,77.0566406 L233.709961,77.0566406 L233.709961,80.0800781 L237.225586,80.0800781 L237.225586,81 L232.637695,81 L232.637695,72.46875 L237.166992,72.46875 L237.166992,73.3945312 L233.709961,73.3945312 L233.709961,76.1367188 L236.727539,76.1367188 L236.727539,77.0566406 Z M244.168945,81 L243.09082,81 L239.674805,74.4257812 L239.674805,81 L238.59668,81 L238.59668,72.46875 L239.674805,72.46875 L243.102539,79.0722656 L243.102539,72.46875 L244.168945,72.46875 L244.168945,81 Z M251.598633,81 L250.520508,81 L247.104492,74.4257812 L247.104492,81 L246.026367,81 L246.026367,72.46875 L247.104492,72.46875 L250.532227,79.0722656 L250.532227,72.46875 L251.598633,72.46875 L251.598633,81 Z M257.545898,77.0566406 L254.52832,77.0566406 L254.52832,80.0800781 L258.043945,80.0800781 L258.043945,81 L253.456055,81 L253.456055,72.46875 L257.985352,72.46875 L257.985352,73.3945312 L254.52832,73.3945312 L254.52832,76.1367188 L257.545898,76.1367188 L257.545898,77.0566406 Z M263.141602,78.84375 C263.141602,78.4179666 263.026368,78.091798 262.795898,77.8652344 C262.594237,77.6669912 262.250521,77.4732367 261.764741,77.2839663 L261.547852,77.203125 C260.946286,76.9882802 260.48633,76.7626965 260.167969,76.5263672 C259.849608,76.2900379 259.611329,76.0205093 259.453125,75.7177734 C259.294921,75.4150375 259.21582,75.0683613 259.21582,74.6777344 C259.21582,74.0019497 259.441404,73.4453147 259.892578,73.0078125 C260.343752,72.5703103 260.934567,72.3515625 261.665039,72.3515625 C262.165042,72.3515625 262.61035,72.4638661 263.000977,72.6884766 C263.391604,72.9130871 263.692382,73.2246074 263.90332,73.6230469 C264.114259,74.0214864 264.219727,74.458982 264.219727,74.9355469 L263.141602,74.9355469 C263.141602,74.4082005 263.01465,74.0000014 262.760742,73.7109375 C262.506835,73.4218736 262.141604,73.2773438 261.665039,73.2773438 C261.231443,73.2773438 260.895509,73.3984363 260.657227,73.640625 C260.418944,73.8828137 260.299805,74.2226541 260.299805,74.6601562 C260.299805,75.019533 260.42871,75.3203113 260.686523,75.5625 C260.944337,75.8046887 261.342771,76.0214834 261.881836,76.2128906 C262.721684,76.4902358 263.322264,76.8320292 263.683594,77.2382812 C264.044924,77.6445333 264.225586,78.175778 264.225586,78.8320312 C264.225586,79.523441 264.000979,80.0771464 263.551758,80.4931641 C263.102537,80.9091818 262.491215,81.1171875 261.717773,81.1171875 C261.221677,81.1171875 260.763674,81.0087901 260.34375,80.7919922 C259.923826,80.5751942 259.593751,80.2705098 259.353516,79.8779297 C259.11328,79.4853496 258.993164,79.0351588 258.993164,78.5273438 L260.071289,78.5273438 C260.071289,79.0546901 260.218749,79.4648423 260.513672,79.7578125 C260.808595,80.0507827 261.209958,80.1972656 261.717773,80.1972656 C262.190432,80.1972656 262.545897,80.0761731 262.78418,79.8339844 C263.022462,79.5917957 263.141602,79.2617208 263.141602,78.84375 Z M269.358398,78.84375 C269.358398,78.4179666 269.243165,78.091798 269.012695,77.8652344 C268.811034,77.6669912 268.467318,77.4732367 267.981538,77.2839663 L267.764648,77.203125 C267.163083,76.9882802 266.703127,76.7626965 266.384766,76.5263672 C266.066405,76.2900379 265.828126,76.0205093 265.669922,75.7177734 C265.511718,75.4150375 265.432617,75.0683613 265.432617,74.6777344 C265.432617,74.0019497 265.658201,73.4453147 266.109375,73.0078125 C266.560549,72.5703103 267.151364,72.3515625 267.881836,72.3515625 C268.381838,72.3515625 268.827146,72.4638661 269.217773,72.6884766 C269.6084,72.9130871 269.909179,73.2246074 270.120117,73.6230469 C270.331056,74.0214864 270.436523,74.458982 270.436523,74.9355469 L269.358398,74.9355469 C269.358398,74.4082005 269.231447,74.0000014 268.977539,73.7109375 C268.723632,73.4218736 268.358401,73.2773438 267.881836,73.2773438 C267.44824,73.2773438 267.112306,73.3984363 266.874023,73.640625 C266.635741,73.8828137 266.516602,74.2226541 266.516602,74.6601562 C266.516602,75.019533 266.645507,75.3203113 266.90332,75.5625 C267.161134,75.8046887 267.559568,76.0214834 268.098633,76.2128906 C268.938481,76.4902358 269.539061,76.8320292 269.900391,77.2382812 C270.261721,77.6445333 270.442383,78.175778 270.442383,78.8320312 C270.442383,79.523441 270.217776,80.0771464 269.768555,80.4931641 C269.319334,80.9091818 268.708012,81.1171875 267.93457,81.1171875 C267.438474,81.1171875 266.980471,81.0087901 266.560547,80.7919922 C266.140623,80.5751942 265.810548,80.2705098 265.570312,79.8779297 C265.330077,79.4853496 265.209961,79.0351588 265.209961,78.5273438 L266.288086,78.5273438 C266.288086,79.0546901 266.435545,79.4648423 266.730469,79.7578125 C267.025392,80.0507827 267.426755,80.1972656 267.93457,80.1972656 C268.407229,80.1972656 268.762694,80.0761731 269.000977,79.8339844 C269.239259,79.5917957 269.358398,79.2617208 269.358398,78.84375 Z M275.938477,77.0566406 L272.920898,77.0566406 L272.920898,80.0800781 L276.436523,80.0800781 L276.436523,81 L271.848633,81 L271.848633,72.46875 L276.37793,72.46875 L276.37793,73.3945312 L272.920898,73.3945312 L272.920898,76.1367188 L275.938477,76.1367188 L275.938477,77.0566406 Z M281.897461,77.0566406 L278.879883,77.0566406 L278.879883,80.0800781 L282.395508,80.0800781 L282.395508,81 L277.807617,81 L277.807617,72.46875 L282.336914,72.46875 L282.336914,73.3945312 L278.879883,73.3945312 L278.879883,76.1367188 L281.897461,76.1367188 L281.897461,77.0566406 Z" id="ESTABLISHED2021,FRIENDSVILLETENNESSEE"></path>
        </g>
    </g>
</svg>