<?xml version="1.0" standalone="no"?>
<!DOCTYPE svg PUBLIC "-//W3C//DTD SVG 20010904//EN"
 "http://www.w3.org/TR/2001/REC-SVG-20010904/DTD/svg10.dtd">
<svg version="1.0" xmlns="http://www.w3.org/2000/svg"
 width="200.000000pt" height="200.000000pt" viewBox="0 0 200.000000 200.000000"
 preserveAspectRatio="xMidYMid meet">
<metadata>
Created by potrace 1.14, written by Peter Selinger 2001-2017
</metadata>
<g transform="translate(0.000000,200.000000) scale(0.100000,-0.100000)"
fill="#000000" stroke="none">
<path d="M875 1993 c-111 -13 -270 -67 -366 -123 -265 -155 -436 -397 -493
-699 -16 -83 -14 -285 3 -367 78 -383 377 -689 761 -780 93 -22 337 -25 420
-5 199 48 349 125 483 250 213 200 321 462 312 756 -4 135 -8 161 -37 260
-101 347 -395 616 -758 695 -54 12 -266 20 -325 13z"/>
</g>
</svg>
